<?xml version="1.0" encoding="UTF-8"?>
<svg version="1.1" xmlns="http://www.w3.org/2000/svg" width="290" height="290">
<path d="M0 0 C1.90189717 0.88449137 3.77164097 1.83980831 5.61328125 2.84375 C6.68868164 3.42632568 7.76408203 4.00890137 8.87207031 4.60913086 C10.57508301 5.54511108 10.57508301 5.54511108 12.3125 6.5 C13.49159738 7.14184374 14.67096108 7.78319848 15.85058594 8.42407227 C22.82599332 12.22180208 29.75683119 16.09511678 36.65893555 20.02416992 C40.5905578 22.24878386 44.57168969 24.31922505 48.625 26.3125 C55.5014435 29.69651555 62.21100162 33.35217379 68.92919922 37.03881836 C76.51174649 41.19692781 84.12390881 45.29738164 91.75 49.375 C93.51410886 50.31897121 95.27821767 51.2629425 97.04231262 52.2069397 C98.22587526 52.84025926 99.40945887 53.47353965 100.59306335 54.10678101 C107.29362349 57.69170001 113.9922838 61.28010955 120.6875 64.875 C121.8105957 65.47618652 122.93369141 66.07737305 124.09082031 66.69677734 C125.1165918 67.2480127 126.14236328 67.79924805 127.19921875 68.3671875 C128.10502686 68.85300293 129.01083496 69.33881836 129.9440918 69.83935547 C132 71 132 71 133 72 C133.08843793 74.44830426 133.11528752 76.86820599 133.09765625 79.31640625 C133.09553383 80.41298805 133.09553383 80.41298805 133.09336853 81.53172302 C133.08775408 83.87535632 133.07519922 86.21889539 133.0625 88.5625 C133.05748686 90.14778508 133.05292363 91.73307166 133.04882812 93.31835938 C133.03777997 97.2122761 133.02050572 101.10612205 133 105 C128.58551676 103.96106026 125.03007582 102.08220584 121 100 C120.67 104.29 120.34 108.58 120 113 C114.72 113 109.44 113 104 113 C104 130.49 104 147.98 104 166 C97.07 166 90.14 166 83 166 C83 148.51 83 131.02 83 113 C77.72 113 72.44 113 67 113 C65.875 102.625 65.875 102.625 67 97 C89.275 96.505 89.275 96.505 112 96 C108.88261471 93.66196103 106.09906265 91.87935666 102.6953125 90.06640625 C101.64875488 89.50638916 100.60219727 88.94637207 99.52392578 88.36938477 C98.40228027 87.77311279 97.28063477 87.17684082 96.125 86.5625 C94.34895419 85.6134832 92.57359418 84.66319269 90.79830933 83.7127533 C89.59628436 83.06923025 88.39407382 82.42605369 87.19168091 81.78321838 C81.81821416 78.90875121 76.46936275 75.99060297 71.125 73.0625 C59.95204458 66.95197015 48.72566915 60.94212169 37.49459839 54.93933105 C33.08480513 52.58183035 28.67853308 50.21782747 24.2734375 47.8515625 C22.37693048 46.83339404 20.48037381 45.81531813 18.58380127 44.79727173 C16.80076533 43.83976155 15.0182942 42.88119983 13.23583984 41.92260742 C11.09626678 40.77463994 8.95140527 39.6364502 6.80029297 38.51025391 C4 37 4 37 1.73486328 35.54833984 C-0.86177623 33.95319766 -2.96144817 32.77533724 -6.03710938 33.44067383 C-8.36578673 34.46361325 -10.45878792 35.66712423 -12.625 37 C-13.44637451 37.46841309 -14.26774902 37.93682617 -15.11401367 38.41943359 C-16.86758105 39.41963237 -18.61412973 40.4322217 -20.35400391 41.45605469 C-24.61951774 43.94499264 -28.96962368 46.27464334 -33.3125 48.625 C-35.16290558 49.63775565 -37.01316025 50.65078706 -38.86328125 51.6640625 C-45.88230088 55.49261866 -52.94113936 59.24561673 -60 63 C-69.60335529 68.10848715 -79.18252884 73.25700213 -88.72119141 78.4855957 C-96.24525165 82.60412396 -103.80829488 86.64814054 -111.375 90.6875 C-120.34254174 95.47472697 -129.26541311 100.32374076 -138.09375 105.36328125 C-144.55131265 109 -144.55131265 109 -148 109 C-148 98.11 -148 87.22 -148 76 C-137.56406227 70.02107734 -127.00374991 64.31333053 -116.375 58.6875 C-106.27348603 53.34051988 -96.19537696 47.95901862 -86.17431641 42.4621582 C-78.72671785 38.38192123 -71.24069275 34.37528418 -63.75 30.375 C-53.10576797 24.68930673 -42.52942544 18.89496448 -32 13 C-28.35205688 10.96271245 -24.68963915 8.96075086 -21 7 C-20.36255859 6.65630371 -19.72511719 6.31260742 -19.06835938 5.95849609 C-16.92840956 4.8109653 -14.77815928 3.68502083 -12.625 2.5625 C-11.94614746 2.19560059 -11.26729492 1.82870117 -10.56787109 1.45068359 C-6.48504485 -0.6449712 -4.37309217 -1.27878892 0 0 Z " fill="#22C7D4" transform="translate(153,3)"/>
<path d="M0 0 C5.78593217 -0.00127373 11.571859 -0.00502313 17.35778928 -0.00973773 C51.72734827 -0.03578809 86.08284646 -0.05389914 120.43731809 1.12283063 C123.705005 10.92589138 120.80613057 21.79608113 120.43731809 32.12283063 C27.70731809 32.12283063 -65.02268191 32.12283063 -160.56268191 32.12283063 C-160.56268191 21.89283063 -160.56268191 11.66283063 -160.56268191 1.12283063 C-107.0416 0.31058657 -53.5264883 0.01099688 0 0 Z " fill="#2AC9D4" transform="translate(165.56268191337585,252.87716937065125)"/>
<path d="M0 0 C5.69372355 3.4418018 9.17075445 9.14814368 10.89453125 15.5 C11.3320201 18.73068692 11.3820259 21.86498443 11.375 25.125 C11.37886719 26.919375 11.37886719 26.919375 11.3828125 28.75 C11.26757938 31.67827693 10.92823563 34.28286976 10.25 37.125 C11.24 37.7128125 11.24 37.7128125 12.25 38.3125 C14.25 40.125 14.25 40.125 14.875 42.5 C13.95321558 46.37149458 11.47418296 48.09220105 8.25 50.125 C-0.47994239 54.18543832 -11.15283861 53.21675674 -20.5625 53.0625 C-23.77286011 52.96730396 -23.77286011 52.96730396 -26.75 54.125 C-32.35267745 54.67993186 -37.04012713 54.53965783 -41.75 51.125 C-42.625 48.4375 -42.625 48.4375 -42.75 46.125 C-43.29269531 46.47433594 -43.83539063 46.82367188 -44.39453125 47.18359375 C-45.10996094 47.63863281 -45.82539063 48.09367187 -46.5625 48.5625 C-47.62404297 49.24119141 -47.62404297 49.24119141 -48.70703125 49.93359375 C-52.66225962 52.24018008 -55.89338697 52.24227779 -60.38671875 52.22265625 C-62.14181763 52.21890991 -62.14181763 52.21890991 -63.93237305 52.21508789 C-66.16241089 52.20143188 -66.16241089 52.20143188 -68.4375 52.1875 C-73.160625 52.166875 -77.88375 52.14625 -82.75 52.125 C-82.75 34.635 -82.75 17.145 -82.75 -0.875 C-78.109375 -0.936875 -73.46875 -0.99875 -68.6875 -1.0625 C-66.51208618 -1.10346802 -66.51208618 -1.10346802 -64.29272461 -1.14526367 C-56.27111675 -1.19707349 -50.66935662 -1.09088236 -44.3125 4.125 C-41.92667406 8.70578581 -42.10512173 13.06460228 -42.75 18.125 C-44.125 21.3125 -44.125 21.3125 -45.75 23.125 C-46.41 23.125 -47.07 23.125 -47.75 23.125 C-47.75 23.785 -47.75 24.445 -47.75 25.125 C-47.13125 25.393125 -46.5125 25.66125 -45.875 25.9375 C-43.75 27.125 -43.75 27.125 -41.75 30.125 C-41.5546875 32.38671875 -41.5546875 32.38671875 -41.625 34.8125 C-41.64304688 35.62074219 -41.66109375 36.42898437 -41.6796875 37.26171875 C-41.70289063 37.87660156 -41.72609375 38.49148437 -41.75 39.125 C-41.09 38.795 -40.43 38.465 -39.75 38.125 C-39.91008545 37.5470166 -40.0701709 36.9690332 -40.23510742 36.37353516 C-42.21926013 27.7087431 -42.00421599 16.14777482 -38.08203125 8.109375 C-30.22059549 -3.60208942 -12.38593905 -5.34332432 0 0 Z M-66.75 11.125 C-66.75 13.765 -66.75 16.405 -66.75 19.125 C-64.44 18.465 -62.13 17.805 -59.75 17.125 C-59.42 15.805 -59.09 14.485 -58.75 13.125 C-61.97791555 10.9730563 -63.03400809 10.92413557 -66.75 11.125 Z M-20.75 13.125 C-20.13125 13.5375 -19.5125 13.95 -18.875 14.375 C-16.68231719 16.18073879 -15.82211583 17.5340534 -14.75 20.125 C-14.42 18.145 -14.09 16.165 -13.75 14.125 C-12.43 13.795 -11.11 13.465 -9.75 13.125 C-13.67367492 10.29995406 -16.42938886 11.62940384 -20.75 13.125 Z M-7.75 18.125 C-7.75 19.115 -7.75 20.105 -7.75 21.125 C-7.09 20.465 -6.43 19.805 -5.75 19.125 C-6.41 18.795 -7.07 18.465 -7.75 18.125 Z M-23.75 19.125 C-23.75 20.115 -23.75 21.105 -23.75 22.125 C-22.76 22.455 -21.77 22.785 -20.75 23.125 C-21.41 21.805 -22.07 20.485 -22.75 19.125 C-23.08 19.125 -23.41 19.125 -23.75 19.125 Z M-66.75 31.125 C-66.75 34.095 -66.75 37.065 -66.75 40.125 C-61.73464948 39.79539784 -61.73464948 39.79539784 -57.75 37.125 C-57.91507646 34.54959787 -57.91507646 34.54959787 -58.75 32.125 C-61.45879335 30.77060332 -63.75933268 31.05998549 -66.75 31.125 Z " fill="#ED378E" transform="translate(251.75,177.875)"/>
<path d="M0 0 C8.58 0 17.16 0 26 0 C27.18078125 2.30097656 28.3615625 4.60195312 29.578125 6.97265625 C30.73285436 9.22016697 31.88812981 11.46739617 33.04345703 13.71459961 C33.84122815 15.2670409 34.63843829 16.8197706 35.43505859 18.37280273 C36.58541029 20.61519668 37.73782833 22.85651845 38.890625 25.09765625 C39.24183411 25.78336197 39.59304321 26.46906769 39.95489502 27.17555237 C40.29494568 27.83570847 40.63499634 28.49586456 40.98535156 29.17602539 C41.42503265 30.03207115 41.42503265 30.03207115 41.87359619 30.90541077 C43.52180097 33.97030805 45.27345258 36.97854201 47 40 C47.33 26.8 47.66 13.6 48 0 C53.94 0 59.88 0 66 0 C66 23.1 66 46.2 66 70 C57.42 70 48.84 70 40 70 C32.98203103 56.67602993 25.98271614 43.34247624 19 30 C18.67 30.99 18.34 31.98 18 33 C13.76550575 31.46462911 11.63561223 28.31269663 9.0625 24.8125 C8.62373535 24.22315674 8.1849707 23.63381348 7.73291016 23.02661133 C6.87044881 21.86646791 6.01065099 20.70433862 5.15380859 19.54003906 C4.21657045 18.2890661 3.23374727 17.07234148 2.23828125 15.8671875 C-1.37809927 11.41147511 -1.5512875 8.51287501 -1 3 C-0.67 2.01 -0.34 1.02 0 0 Z " fill="#1CC6D3" transform="translate(57,98)"/>
<path d="M0 0 C1.4540625 -0.01522705 1.4540625 -0.01522705 2.9375 -0.03076172 C9.16363577 0.0442138 15.86765293 0.38646877 21.4375 3.4375 C22.66808455 6.30279598 22.46213623 7.35166692 21.58203125 10.41796875 C21.14246094 11.47628906 20.70289063 12.53460938 20.25 13.625 C19.60998047 15.22408203 19.60998047 15.22408203 18.95703125 16.85546875 C17.4375 19.4375 17.4375 19.4375 15.57421875 20.42578125 C12.81523756 20.44091277 10.96295019 19.52474064 8.4375 18.4375 C1.68121007 17.11215109 -3.60493318 16.79001011 -9.5625 20.4375 C-14.0144494 24.16751166 -14.61520336 28.84797168 -15.375 34.36328125 C-15.72152559 40.04485699 -14.65731384 44.37924998 -12 49.375 C-7.47390428 53.2047733 -1.37626355 53.81258152 4.4375 53.4375 C4.4375 50.4675 4.4375 47.4975 4.4375 44.4375 C0.4775 44.4375 -3.4825 44.4375 -7.5625 44.4375 C-7.58935095 41.95826199 -7.60926547 39.4793116 -7.625 37 C-7.63337891 36.29294922 -7.64175781 35.58589844 -7.65039062 34.85742188 C-7.65903588 33.05056441 -7.61470011 31.24362397 -7.5625 29.4375 C-6.5625 28.4375 -6.5625 28.4375 -3.78686523 28.32397461 C-2.57716064 28.32921143 -1.36745605 28.33444824 -0.12109375 28.33984375 C1.05396729 28.34234131 2.22902832 28.34483887 3.43969727 28.34741211 C4.94459717 28.35651611 6.44949707 28.36562012 8 28.375 C12.764375 28.395625 17.52875 28.41625 22.4375 28.4375 C22.4375 41.3075 22.4375 54.1775 22.4375 67.4375 C13.76265373 69.60621157 6.98893711 70.93657472 -1.6875 70.875 C-2.69425781 70.89498047 -3.70101562 70.91496094 -4.73828125 70.93554688 C-13.7295604 70.92973104 -21.93640932 68.84984582 -28.5625 62.4375 C-29.76976065 60.0229787 -29.72822068 58.41421574 -29.78710938 55.71582031 C-29.80962769 54.73429993 -29.832146 53.75277954 -29.85534668 52.74151611 C-29.92628856 48.24572361 -29.98387236 43.75009805 -30.02246094 39.25390625 C-30.04907555 36.88325812 -30.09000848 34.51272596 -30.14550781 32.14257812 C-30.22461459 28.72478426 -30.25776586 25.30919999 -30.28125 21.890625 C-30.31424194 20.83417786 -30.34723389 19.77773071 -30.38122559 18.68927002 C-30.36165203 11.47962708 -30.36165203 11.47962708 -28.03552246 8.44625854 C-26.27904456 6.91652899 -24.5495504 5.64727583 -22.5625 4.4375 C-21.8096875 3.95539063 -21.056875 3.47328125 -20.28125 2.9765625 C-13.62419723 0.23404428 -7.10400305 0.0531669 0 0 Z " fill="#1DC6D3" transform="translate(154.5625,98.5625)"/>
<path d="M0 0 C1.084021 0.00523682 2.16804199 0.01047363 3.28491211 0.01586914 C5.03964844 0.02070312 5.03964844 0.02070312 6.82983398 0.02563477 C8.0615332 0.03401367 9.29323242 0.04239258 10.56225586 0.05102539 C12.41560547 0.05779297 12.41560547 0.05779297 14.30639648 0.06469727 C17.37089703 0.07652931 20.43530307 0.09301366 23.49975586 0.11352539 C26.58376333 7.55460809 29.27018068 15.09047055 31.82788086 22.72680664 C32.41868439 24.48567451 32.41868439 24.48567451 33.02142334 26.28007507 C33.84654733 28.7410253 34.67003009 31.20252637 35.49194336 33.66455078 C36.75263165 37.43462541 38.02448103 41.20082086 39.29663086 44.96704102 C40.09940197 47.3658995 40.90150878 49.76498042 41.70288086 52.16430664 C42.08406067 53.28831375 42.46524048 54.41232086 42.85797119 55.57038879 C43.20543396 56.61885483 43.55289673 57.66732086 43.91088867 58.74755859 C44.21859192 59.66559769 44.52629517 60.58363678 44.84332275 61.52949524 C45.49975586 64.11352539 45.49975586 64.11352539 45.49975586 69.11352539 C38.56975586 69.11352539 31.63975586 69.11352539 24.49975586 69.11352539 C21.49975586 61.11352539 21.49975586 61.11352539 20.49975586 57.11352539 C13.89975586 56.78352539 7.29975586 56.45352539 0.49975586 56.11352539 C0.19038086 57.70165039 -0.11899414 59.28977539 -0.43774414 60.92602539 C-0.98948209 63.75828022 -1.58617392 66.37131473 -2.50024414 69.11352539 C-5.14024414 69.11352539 -7.78024414 69.11352539 -10.50024414 69.11352539 C-10.67627485 62.80466202 -10.80168541 56.49729657 -10.88476562 50.18652344 C-10.91947785 48.05020181 -10.96686433 45.91403991 -11.02832031 43.77832031 C-11.45693393 28.47429294 -9.90055493 15.18868185 -3.50024414 1.11352539 C-2.50024414 0.11352539 -2.50024414 0.11352539 0 0 Z M10.49975586 18.11352539 C9.66005306 21.0284937 8.82779583 23.94524399 7.99975586 26.86352539 C7.7612793 27.68852539 7.52280273 28.51352539 7.27709961 29.36352539 C7.05151367 30.16274414 6.82592773 30.96196289 6.59350586 31.78540039 C6.3840332 32.51855469 6.17456055 33.25170898 5.95874023 34.00708008 C5.35782268 36.4055963 5.35782268 36.4055963 5.49975586 40.11352539 C9.12975586 40.11352539 12.75975586 40.11352539 16.49975586 40.11352539 C16.22260742 38.9443457 15.94545898 37.77516602 15.65991211 36.57055664 C15.29398185 35.02239016 14.92809893 33.47421248 14.56225586 31.92602539 C14.37985352 31.15709961 14.19745117 30.38817383 14.00952148 29.59594727 C13.10855473 25.77912447 12.23337589 21.96696113 11.49975586 18.11352539 C11.16975586 18.11352539 10.83975586 18.11352539 10.49975586 18.11352539 Z " fill="#1CC6D3" transform="translate(189.500244140625,98.886474609375)"/>
<path d="M0 0 C6.6 0 13.2 0 20 0 C22.27873374 6.07662332 24.32543959 12.05232732 26.1875 18.25 C26.46013672 19.13429687 26.73277344 20.01859375 27.01367188 20.9296875 C27.27083984 21.78304687 27.52800781 22.63640625 27.79296875 23.515625 C28.0252417 24.28165039 28.25751465 25.04767578 28.49682617 25.83691406 C29 28 29 28 29 32 C29.66 32 30.32 32 31 32 C31.16326782 31.10970093 31.16326782 31.10970093 31.32983398 30.20141602 C32.57547573 23.67084857 34.21114764 17.32038637 36.0625 10.9375 C36.4656543 9.5153418 36.4656543 9.5153418 36.87695312 8.06445312 C38.87041782 1.12958218 38.87041782 1.12958218 40 0 C46.6 0 53.2 0 60 0 C60 17.49 60 34.98 60 53 C55.38 53 50.76 53 46 53 C45.505 40.625 45.505 40.625 45 28 C42.69 36.25 40.38 44.5 38 53 C32.72 53 27.44 53 22 53 C18.535 41.615 18.535 41.615 15 30 C14.67 37.59 14.34 45.18 14 53 C9.38 53 4.76 53 0 53 C0 35.51 0 18.02 0 0 Z " fill="#EB398E" transform="translate(107,177)"/>
<path d="M0 0 C3.31120168 0.25530293 4.20523024 1.21113838 6.578125 3.65234375 C7.47848978 4.73940181 8.36886346 5.83479861 9.25 6.9375 C9.93835937 7.76411133 9.93835937 7.76411133 10.640625 8.60742188 C14 12.72165644 14 12.72165644 14 15 C14.99 15.33 15.98 15.66 17 16 C18.50219727 17.64233398 18.50219727 17.64233398 20.06640625 19.74609375 C20.9181543 20.87821289 20.9181543 20.87821289 21.78710938 22.03320312 C22.37298828 22.82662109 22.95886719 23.62003906 23.5625 24.4375 C24.72928193 25.9995851 25.89720023 27.56082223 27.06640625 29.12109375 C27.58146729 29.8164624 28.09652832 30.51183105 28.62719727 31.22827148 C30.02458679 33.10848988 30.02458679 33.10848988 32 35 C32.24291992 37.13208008 32.24291992 37.13208008 32.23046875 39.76953125 C32.22917969 40.73560303 32.22789063 41.7016748 32.2265625 42.69702148 C32.21367188 43.72512939 32.20078125 44.7532373 32.1875 45.8125 C32.18105469 46.85027588 32.17460938 47.88805176 32.16796875 48.95727539 C32.09421629 56.34116376 31.78953913 63.65446627 31 71 C27.73575831 69.91191944 27.27413934 69.39600227 25.3203125 66.74609375 C24.80944092 66.06345459 24.29856934 65.38081543 23.7722168 64.67749023 C23.22863525 63.93829346 22.68505371 63.19909668 22.125 62.4375 C17.43137895 56.16837898 12.64511648 50.00040983 7.6875 43.9375 C7.11854004 43.24132568 6.54958008 42.54515137 5.96337891 41.82788086 C4.64429368 40.21691381 3.32247693 38.60818389 2 37 C-1.71664401 40.57677031 -4.97593518 44.34937204 -8.125 48.4375 C-8.59292969 49.03715576 -9.06085937 49.63681152 -9.54296875 50.25463867 C-12.06423713 53.48732495 -14.56413417 56.73580098 -17.0546875 59.9921875 C-17.5482373 60.6322876 -18.04178711 61.2723877 -18.55029297 61.93188477 C-19.50065483 63.16473041 -20.44522208 64.40206958 -21.38330078 65.64428711 C-24.66213741 69.88737914 -24.66213741 69.88737914 -28 71 C-28.25003593 66.09314107 -28.42991302 61.19009781 -28.54931641 56.27832031 C-28.59914871 54.61359999 -28.66704988 52.94930686 -28.75439453 51.28613281 C-29.20915267 42.39427373 -29.49191537 35.20639809 -23.31640625 28.27734375 C-21.56959987 26.49307484 -19.79977951 24.73082113 -18 23 C-16.92748215 21.71604635 -15.87651151 20.41326975 -14.86328125 19.08203125 C-14.43442627 18.53434082 -14.00557129 17.98665039 -13.5637207 17.42236328 C-13.15081787 16.8911084 -12.73791504 16.35985352 -12.3125 15.8125 C-11.8589917 15.23226074 -11.4054834 14.65202148 -10.93823242 14.05419922 C-9.62347188 12.37102574 -8.31136423 10.68582018 -7 9 C-5.88625 7.57107422 -5.88625 7.57107422 -4.75 6.11328125 C-3.16456015 4.07714176 -1.58096879 2.03961162 0 0 Z " fill="#1EC4D2" transform="translate(43,99)"/>
<path d="M0 0 C0 4.95 0 9.9 0 15 C-5.61 15 -11.22 15 -17 15 C-17 32.16 -17 49.32 -17 67 C-22.61 67 -28.22 67 -34 67 C-34 49.84 -34 32.68 -34 15 C-39.61 15 -45.22 15 -51 15 C-51.33 10.05 -51.66 5.1 -52 0 C-45.71965268 -0.16821337 -39.43917219 -0.3287077 -33.15844727 -0.48217773 C-31.0236282 -0.53541471 -28.88885984 -0.5907286 -26.75415039 -0.64819336 C-23.67865937 -0.73061738 -20.60306097 -0.80547167 -17.52734375 -0.87890625 C-16.10505714 -0.91945885 -16.10505714 -0.91945885 -14.65403748 -0.96083069 C-13.75363235 -0.98092697 -12.85322723 -1.00102325 -11.92553711 -1.02172852 C-11.14166122 -1.04171402 -10.35778534 -1.06169952 -9.55015564 -1.08229065 C-6.34806022 -0.97896264 -3.17156269 -0.45308038 0 0 Z " fill="#19C6D3" transform="translate(272,100)"/>
<path d="M0 0 C10.89 0 21.78 0 33 0 C33 11 33 11 32 13 C26.72 13 21.44 13 16 13 C16 14.98 16 16.96 16 19 C20.95 19 25.9 19 31 19 C31 23.29 31 27.58 31 32 C26.05 32 21.1 32 16 32 C16 34.64 16 37.28 16 40 C17.14339844 39.98839844 18.28679687 39.97679687 19.46484375 39.96484375 C20.95572754 39.95546712 22.44661309 39.94636679 23.9375 39.9375 C24.69224609 39.92912109 25.44699219 39.92074219 26.22460938 39.91210938 C28.14994313 39.90347559 30.07535581 39.94775667 32 40 C35.07318149 43.07318149 33 48.65386506 33 53 C22.11 53 11.22 53 0 53 C0 35.51 0 18.02 0 0 Z " fill="#EC398F" transform="translate(73,177)"/>
<path d="M0 0 C0.75990234 -0.01160156 1.51980469 -0.02320313 2.30273438 -0.03515625 C7.83528821 -0.00680841 11.98344914 1.19083478 17.0625 3.375 C16.47145235 8.22159077 15.08305843 11.98248167 13.0625 16.375 C12.0725 16.230625 11.0825 16.08625 10.0625 15.9375 C9.42570312 15.85113281 8.78890625 15.76476562 8.1328125 15.67578125 C6.74781975 15.47456532 5.36698008 15.24245753 3.9921875 14.98046875 C0.61762414 14.39665646 -1.59710593 14.24180232 -4.8125 15.5 C-7.99969522 18.31223107 -8.80956457 21.12555271 -9.23828125 25.3125 C-9.24214844 26.323125 -9.24601562 27.33375 -9.25 28.375 C-9.26675781 29.385625 -9.28351562 30.39625 -9.30078125 31.4375 C-8.88229398 34.82139709 -7.9578513 36.64965492 -5.9375 39.375 C-1.31617337 42.45588442 3.28763211 41.86049725 8.65234375 40.921875 C10.79853204 40.4472046 12.93207958 39.91605915 15.0625 39.375 C15.0625 43.995 15.0625 48.615 15.0625 53.375 C6.40153988 56.95884557 -3.36252375 58.23571659 -12.4375 55.1875 C-19.33354256 51.6163351 -23.26978522 47.5983508 -25.9375 40.375 C-28.4453038 30.37722218 -27.95198909 19.47482284 -22.9375 10.375 C-16.92507981 2.26418564 -9.75928678 -0.14824233 0 0 Z " fill="#ED388F" transform="translate(53.9375,175.625)"/>
<path d="M0 0 C0.7940625 -0.00322266 1.588125 -0.00644531 2.40625 -0.00976562 C7.68553579 0.03862783 11.74800913 0.39600981 15.9140625 3.94140625 C23.81467118 12.87017633 24.45680057 20.99114557 24.30078125 32.51953125 C23.87715736 37.86159355 23.87715736 37.86159355 22 40.3125 C18.875 41.0625 18.875 41.0625 16 41.3125 C15.91878906 41.90804687 15.83757812 42.50359375 15.75390625 43.1171875 C14.76831001 45.98716203 13.42804348 46.75956771 10.9375 48.4375 C8.76236815 49.87146197 8.76236815 49.87146197 7 51.3125 C7 51.9725 7 52.6325 7 53.3125 C2.71 53.3125 -1.58 53.3125 -6 53.3125 C-6 52.6525 -6 51.9925 -6 51.3125 C-5.01 51.3125 -4.02 51.3125 -3 51.3125 C-3 49.3325 -3 47.3525 -3 45.3125 C-2.34 45.3125 -1.68 45.3125 -1 45.3125 C-0.7525 44.631875 -0.505 43.95125 -0.25 43.25 C2.41447728 36.9884784 4.72792297 33.50312533 10 29.3125 C11.80979141 26.19587092 11.80979141 26.19587092 13 23.3125 C12.01 23.3125 11.02 23.3125 10 23.3125 C10 19.3125 10 19.3125 11.5 17.5625 C11.995 17.15 12.49 16.7375 13 16.3125 C11.68 16.6425 10.36 16.9725 9 17.3125 C8.505 15.8275 8.505 15.8275 8 14.3125 C5.19623648 13.18300779 5.19623648 13.18300779 2 12.3125 C0.32836805 11.65838315 -1.34015202 10.99596682 -3 10.3125 C-3 10.9725 -3 11.6325 -3 12.3125 C-3.763125 12.76625 -4.52625 13.22 -5.3125 13.6875 C-8.0282672 15.3295918 -9.17364996 16.79039757 -11 19.3125 C-11.66 19.3125 -12.32 19.3125 -13 19.3125 C-13.33 19.9725 -13.66 20.6325 -14 21.3125 C-13.01 21.3125 -12.02 21.3125 -11 21.3125 C-10.87625 21.93125 -10.7525 22.55 -10.625 23.1875 C-10.12802644 25.50370832 -10.12802644 25.50370832 -8 27.3125 C-8.99 27.3125 -9.98 27.3125 -11 27.3125 C-11 28.3025 -11 29.2925 -11 30.3125 C-17.75 29.4375 -17.75 29.4375 -20 28.3125 C-19.86722656 28.97636719 -19.73445312 29.64023438 -19.59765625 30.32421875 C-18.73177083 34.65364583 -17.86588542 38.98307292 -17 43.3125 C-18.65 42.9825 -20.3 42.6525 -22 42.3125 C-24.20347886 36.9448255 -24.36656116 32.08387702 -24.375 26.375 C-24.39949219 25.50681641 -24.42398438 24.63863281 -24.44921875 23.74414062 C-24.47651667 17.72495009 -23.50152823 14.23632476 -20 9.3125 C-17.3125 7 -17.3125 7 -15 5.3125 C-14.67 4.6525 -14.34 3.9925 -14 3.3125 C-9.53499789 -0.27171068 -5.45912441 -0.11077769 0 0 Z " fill="#EC3D8E" transform="translate(237,175.6875)"/>
<path d="M0 0 C0.66 0 1.32 0 2 0 C3.5234375 1.87890625 3.5234375 1.87890625 5.375 4.5625 C8.78933769 9.38237561 12.35899702 14.02422087 16.0625 18.625 C16.57635254 19.2749292 17.09020508 19.9248584 17.61962891 20.59448242 C19.76993351 23.30353573 21.89426792 25.89266861 24.32421875 28.359375 C29.08484823 33.34210282 29.5167728 37.39401698 29.4375 44.0625 C29.34817554 46.71742133 29.19171019 49.34953054 29 52 C25.45291909 48.58429246 22.39542855 45.05889483 19.4375 41.125 C16.57284454 37.33373996 13.67745286 33.57726751 10.68359375 29.88671875 C10.13324463 29.20786621 9.58289551 28.52901367 9.01586914 27.82958984 C7.93424607 26.49997077 6.84887544 25.17339025 5.75952148 23.85009766 C2 19.21909846 2 19.21909846 2 17 C-2.25955331 21.09141304 -6.01219518 25.4937316 -9.75 30.0625 C-10.36254639 30.80749756 -10.97509277 31.55249512 -11.60620117 32.32006836 C-16.04794289 37.75366098 -20.30251375 43.29458918 -24.42578125 48.97265625 C-24.94527344 49.64167969 -25.46476562 50.31070313 -26 51 C-26.33 51 -26.66 51 -27 51 C-28.08888666 43.48016737 -28.94318751 36.25159256 -24.421875 29.73046875 C-21.6845201 26.27332305 -18.70503706 23.04451763 -15.68017578 19.83837891 C-13.23148672 17.15912452 -11.13787215 14.30869596 -9 11.375 C-2.91582464 3.18089961 -2.91582464 3.18089961 0 0 Z " fill="#E63A8F" transform="translate(44,115)"/>
<path d="M0 0 C3.34499762 1.51262899 6.50445372 3.29980546 9.6875 5.125 C11.64897106 6.22272852 13.61125072 7.31901311 15.57421875 8.4140625 C16.61368652 8.99704102 17.6531543 9.58001953 18.72412109 10.18066406 C23.85358184 13.02943001 29.03141137 15.78709336 34.20962524 18.5458374 C44.04488132 23.78744029 53.8490199 29.08386036 63.62402344 34.43701172 C71.14087008 38.5469719 78.69329545 42.58903854 86.25 46.625 C96.8940807 52.31009511 107.4810854 58.08658901 118 64 C115 65 115 65 112.65014648 64.07885742 C111.73305908 63.59263916 110.81597168 63.1064209 109.87109375 62.60546875 C108.84604736 62.06752686 107.82100098 61.52958496 106.76489258 60.9753418 C105.66685303 60.385354 104.56881348 59.79536621 103.4375 59.1875 C102.30143311 58.58655518 101.16536621 57.98561035 99.99487305 57.36645508 C93.02771855 53.66655396 86.10847595 49.88534205 79.2331543 46.01782227 C71.96509325 41.94179869 64.60780386 38.03559753 57.25 34.125 C42.8965523 26.4932244 28.59733734 18.76784809 14.37890625 10.88671875 C13.00822998 10.12838745 13.00822998 10.12838745 11.60986328 9.35473633 C9.88145222 8.39768357 8.15446275 7.43805698 6.42919922 6.4753418 C4.92681983 5.64324751 3.41758042 4.82335571 1.90014648 4.01904297 C0.39361846 3.21109642 -1.07657122 2.33544987 -2.53125 1.4375 C-6.76486 0.68724 -9.83271094 3.05586672 -13.4375 5.125 C-14.27240967 5.58438965 -15.10731934 6.0437793 -15.9675293 6.51708984 C-17.75104553 7.50001574 -19.53032796 8.49065648 -21.30566406 9.48828125 C-24.74447048 11.41770218 -28.20643279 13.30281938 -31.67016602 15.18701172 C-33.45841968 16.16019975 -35.24533092 17.13585792 -37.03100586 18.11376953 C-44.98881238 22.46960708 -52.99063076 26.74007147 -61 31 C-70.60335529 36.10848715 -80.18252884 41.25700213 -89.72119141 46.4855957 C-97.24525165 50.60412396 -104.80829488 54.64814054 -112.375 58.6875 C-121.34254174 63.47472697 -130.26541311 68.32374076 -139.09375 73.36328125 C-145.55131265 77 -145.55131265 77 -149 77 C-149 66.11 -149 55.22 -149 44 C-148.34 44.33 -147.68 44.66 -147 45 C-147.33 54.9 -147.66 64.8 -148 75 C-133.34081259 67.20550629 -118.68480404 59.40887841 -104.12158203 51.43603516 C-91.67434343 44.62476323 -79.16582208 37.92676368 -66.66796875 31.20898438 C-50.87363943 22.7193472 -50.87363943 22.7193472 -35.1184082 14.1574707 C-33.27575588 13.15109042 -31.43187892 12.14694856 -29.58666992 11.14526367 C-25.54818551 8.95174553 -21.52705368 6.73925061 -17.546875 4.44140625 C-16.86713623 4.05710449 -16.18739746 3.67280273 -15.48706055 3.27685547 C-13.71481231 2.27371306 -11.9525978 1.25289861 -10.19140625 0.23046875 C-6.11696709 -1.34045944 -4.21200694 -1.16208648 0 0 Z " fill="#DFF0F2" transform="translate(154,35)"/>
<path d="M0 0 C8.58 0 17.16 0 26 0 C27.18078125 2.30097656 28.3615625 4.60195312 29.578125 6.97265625 C30.73285436 9.22016697 31.88812981 11.46739617 33.04345703 13.71459961 C33.84122815 15.2670409 34.63843829 16.8197706 35.43505859 18.37280273 C36.58541029 20.61519668 37.73782833 22.85651845 38.890625 25.09765625 C39.24183411 25.78336197 39.59304321 26.46906769 39.95489502 27.17555237 C40.29494568 27.83570847 40.63499634 28.49586456 40.98535156 29.17602539 C41.42503265 30.03207115 41.42503265 30.03207115 41.87359619 30.90541077 C43.52180097 33.97030805 45.27345258 36.97854201 47 40 C47.33 26.8 47.66 13.6 48 0 C53.94 0 59.88 0 66 0 C66 23.1 66 46.2 66 70 C57.42 70 48.84 70 40 70 C32.98203103 56.67602993 25.98271614 43.34247624 19 30 C18.67 30.99 18.34 31.98 18 33 C13.76550575 31.46462911 11.63561223 28.31269663 9.0625 24.8125 C8.62373535 24.22315674 8.1849707 23.63381348 7.73291016 23.02661133 C6.87044881 21.86646791 6.01065099 20.70433862 5.15380859 19.54003906 C4.21657045 18.2890661 3.23374727 17.07234148 2.23828125 15.8671875 C-1.37809927 11.41147511 -1.5512875 8.51287501 -1 3 C-0.67 2.01 -0.34 1.02 0 0 Z M1 1 C0.29506969 9.55413734 0.29506969 9.55413734 3.7734375 15.40625 C4.3509375 16.086875 4.9284375 16.7675 5.5234375 17.46875 C6.13445313 18.1390625 6.74546875 18.809375 7.375 19.5 C7.97828125 20.20125 8.5815625 20.9025 9.203125 21.625 C11.39914294 24.16262073 13.62686372 26.62686372 16 29 C16 26.69 16 24.38 16 22 C16.66 22 17.32 22 18 22 C18.24242432 22.64638428 18.48484863 23.29276855 18.73461914 23.95874023 C20.39576566 27.95119676 22.31496987 31.79247991 24.24609375 35.66015625 C24.65787369 36.48704453 25.06965363 37.3139328 25.49391174 38.1658783 C26.36280736 39.90871868 27.23277949 41.65102274 28.10375977 43.39282227 C29.43357671 46.05464696 30.7569612 48.71960552 32.08007812 51.38476562 C32.92669108 53.08092501 33.77368354 54.77689504 34.62109375 56.47265625 C35.01493759 57.26752945 35.40878143 58.06240265 35.81455994 58.88136292 C36.18827225 59.62571091 36.56198456 60.3700589 36.94702148 61.13696289 C37.43427956 62.11361656 37.43427956 62.11361656 37.93138123 63.11000061 C39.19303343 65.43591881 39.19303343 65.43591881 42 69 C49.59 69 57.18 69 65 69 C65 46.56 65 24.12 65 1 C60.05 1 55.1 1 50 1 C50 16.51 50 32.02 50 48 C49.34 48 48.68 48 48 48 C47.76877441 47.20706543 47.53754883 46.41413086 47.29931641 45.59716797 C45.63881646 41.00006045 43.45853592 36.77935088 41.2109375 32.4453125 C40.74765045 31.54376434 40.2843634 30.64221619 39.80703735 29.71334839 C38.33368673 26.84848787 36.85443765 23.98672106 35.375 21.125 C34.3720044 19.17728486 33.3693959 17.22937032 32.3671875 15.28125 C29.916652 10.51812306 27.45815664 5.75922901 25 1 C17.08 1 9.16 1 1 1 Z " fill="#B8DFE2" transform="translate(57,98)"/>
<path d="M0 0 C3.31120168 0.25530293 4.20523024 1.21113838 6.578125 3.65234375 C7.47848978 4.73940181 8.36886346 5.83479861 9.25 6.9375 C9.93835937 7.76411133 9.93835937 7.76411133 10.640625 8.60742188 C14 12.72165644 14 12.72165644 14 15 C14.99 15.33 15.98 15.66 17 16 C18.50219727 17.64233398 18.50219727 17.64233398 20.06640625 19.74609375 C20.9181543 20.87821289 20.9181543 20.87821289 21.78710938 22.03320312 C22.37298828 22.82662109 22.95886719 23.62003906 23.5625 24.4375 C24.72928193 25.9995851 25.89720023 27.56082223 27.06640625 29.12109375 C27.58146729 29.8164624 28.09652832 30.51183105 28.62719727 31.22827148 C30.02458679 33.10848988 30.02458679 33.10848988 32 35 C32.24291992 37.13208008 32.24291992 37.13208008 32.23046875 39.76953125 C32.22917969 40.73560303 32.22789063 41.7016748 32.2265625 42.69702148 C32.21367188 43.72512939 32.20078125 44.7532373 32.1875 45.8125 C32.18105469 46.85027588 32.17460938 47.88805176 32.16796875 48.95727539 C32.09421629 56.34116376 31.78953913 63.65446627 31 71 C27.73575831 69.91191944 27.27413934 69.39600227 25.3203125 66.74609375 C24.80944092 66.06345459 24.29856934 65.38081543 23.7722168 64.67749023 C23.22863525 63.93829346 22.68505371 63.19909668 22.125 62.4375 C17.43137895 56.16837898 12.64511648 50.00040983 7.6875 43.9375 C7.11854004 43.24132568 6.54958008 42.54515137 5.96337891 41.82788086 C4.64429368 40.21691381 3.32247693 38.60818389 2 37 C-1.71664401 40.57677031 -4.97593518 44.34937204 -8.125 48.4375 C-8.59292969 49.03715576 -9.06085937 49.63681152 -9.54296875 50.25463867 C-12.06423713 53.48732495 -14.56413417 56.73580098 -17.0546875 59.9921875 C-17.5482373 60.6322876 -18.04178711 61.2723877 -18.55029297 61.93188477 C-19.50065483 63.16473041 -20.44522208 64.40206958 -21.38330078 65.64428711 C-24.66213741 69.88737914 -24.66213741 69.88737914 -28 71 C-28.25003593 66.09314107 -28.42991302 61.19009781 -28.54931641 56.27832031 C-28.59914871 54.61359999 -28.66704988 52.94930686 -28.75439453 51.28613281 C-29.20915267 42.39427373 -29.49191537 35.20639809 -23.31640625 28.27734375 C-21.56959987 26.49307484 -19.79977951 24.73082113 -18 23 C-16.92748215 21.71604635 -15.87651151 20.41326975 -14.86328125 19.08203125 C-14.43442627 18.53434082 -14.00557129 17.98665039 -13.5637207 17.42236328 C-13.15081787 16.8911084 -12.73791504 16.35985352 -12.3125 15.8125 C-11.8589917 15.23226074 -11.4054834 14.65202148 -10.93823242 14.05419922 C-9.62347188 12.37102574 -8.31136423 10.68582018 -7 9 C-5.88625 7.57107422 -5.88625 7.57107422 -4.75 6.11328125 C-3.16456015 4.07714176 -1.58096879 2.03961162 0 0 Z M1 1 C-0.66291066 3.01881035 -2.27712649 5.05543553 -3.875 7.125 C-4.87494533 8.40889675 -5.87494697 9.69274964 -6.875 10.9765625 C-7.390625 11.64075195 -7.90625 12.30494141 -8.4375 12.98925781 C-10.90695327 16.16713549 -13.39040084 19.33395983 -15.875 22.5 C-16.31440918 23.06219238 -16.75381836 23.62438477 -17.20654297 24.20361328 C-17.63080566 24.7448584 -18.05506836 25.28610352 -18.4921875 25.84375 C-18.85683105 26.30974609 -19.22147461 26.77574219 -19.59716797 27.25585938 C-21 29 -21 29 -23.6262207 31.72314453 C-26.52613676 35.21141231 -26.57901231 38.04938461 -26.48828125 42.5859375 C-26.48120651 43.28772125 -26.47413177 43.989505 -26.46684265 44.71255493 C-26.43905097 46.93449591 -26.37635434 49.15383265 -26.3125 51.375 C-26.28739686 52.88928628 -26.26458722 54.40361243 -26.24414062 55.91796875 C-26.18927846 59.6128126 -26.10311808 63.30615175 -26 67 C-22.32536503 63.37934748 -19.01978025 59.64581412 -15.875 55.5625 C-15.40779541 54.96284424 -14.94059082 54.36318848 -14.45922852 53.74536133 C-12.45165219 51.16830732 -10.45241489 48.58483945 -8.45361328 46.00097656 C-6.95120939 44.06082702 -5.44445482 42.12411545 -3.9375 40.1875 C-3.47263184 39.58301025 -3.00776367 38.97852051 -2.52880859 38.35571289 C0.77446541 34.11276729 0.77446541 34.11276729 3 33 C3.22816406 33.52851563 3.45632812 34.05703125 3.69140625 34.6015625 C5.4355625 37.79831454 7.66656896 40.54460415 9.9375 43.375 C10.92595925 44.61834809 11.91423492 45.86184215 12.90234375 47.10546875 C13.4113623 47.74403809 13.92038086 48.38260742 14.44482422 49.04052734 C15.99560732 50.99446536 17.53320092 52.95802846 19.06640625 54.92578125 C19.55826416 55.55629395 20.05012207 56.18680664 20.55688477 56.83642578 C21.49996784 58.0461121 22.44191219 59.25668727 23.38256836 60.46826172 C25.4675183 63.13403307 27.57774362 65.63925986 30 68 C32.45318595 46.7630333 32.45318595 46.7630333 25.80566406 27.51342773 C23.53458257 25.05308945 21.19028151 22.73995275 18.67578125 20.52880859 C16.14653246 18.22138495 14.16735204 15.63704483 12.0625 12.9375 C8.75967549 8.91085207 5.46024576 4.89277648 2 1 C1.67 1 1.34 1 1 1 Z " fill="#DBD9E3" transform="translate(43,99)"/>
<path d="M0 0 C5.02629997 0.73916176 9.36892762 2.36892762 13 6 C13.99 6 14.98 6 16 6 C15.67 6.99 15.34 7.98 15 9 C14.34 9 13.68 9 13 9 C13 10.32 13 11.64 13 13 C13.99 13 14.98 13 16 13 C15.52445506 17.27990445 13.01316405 19.12698311 10 22 C7.20214824 25.19754487 5.38022025 27.9743576 4 32 C3.01 32 2.02 32 1 32 C1.185625 31.13375 1.37125 30.2675 1.5625 29.375 C1.376875 28.26125 1.19125 27.1475 1 26 C-1.03572923 24.50632337 -1.03572923 24.50632337 -3.5 23.1875 C-5.99609375 21.72265625 -5.99609375 21.72265625 -8 20 C-8.78628428 16.8702802 -8.56816284 14.15646022 -8 11 C-8.99 11 -9.98 11 -11 11 C-10.67 10.01 -10.34 9.02 -10 8 C-9.01 7.67 -8.02 7.34 -7 7 C-6.154375 6.154375 -5.30875 5.30875 -4.4375 4.4375 C-3.633125 3.633125 -2.82875 2.82875 -2 2 C-1.34 2 -0.68 2 0 2 C0 1.34 0 0.68 0 0 Z M-3 5 C-2.38125 5.4125 -1.7625 5.825 -1.125 6.25 C1.06768281 8.05573879 1.92788417 9.4090534 3 12 C3.33 10.02 3.66 8.04 4 6 C5.32 5.67 6.64 5.34 8 5 C4.07632508 2.17495406 1.32061114 3.50440384 -3 5 Z M10 10 C10 10.99 10 11.98 10 13 C10.66 12.34 11.32 11.68 12 11 C11.34 10.67 10.68 10.34 10 10 Z M-6 11 C-6 11.99 -6 12.98 -6 14 C-5.01 14.33 -4.02 14.66 -3 15 C-3.66 13.68 -4.32 12.36 -5 11 C-5.33 11 -5.66 11 -6 11 Z " fill="#FBEDB3" transform="translate(234,186)"/>
<path d="M0 0 C5.875 1.875 5.875 1.875 7 3 C7.08843793 5.44830426 7.11528752 7.86820599 7.09765625 10.31640625 C7.0962413 11.04746078 7.09482635 11.77851532 7.09336853 12.53172302 C7.08775408 14.87535632 7.07519922 17.21889539 7.0625 19.5625 C7.05748686 21.14778508 7.05292363 22.73307166 7.04882812 24.31835938 C7.03777997 28.2122761 7.02050572 32.10612205 7 36 C2.58551676 34.96106026 -0.96992418 33.08220584 -5 31 C-5.33 35.29 -5.66 39.58 -6 44 C-11.28 44 -16.56 44 -22 44 C-22 61.49 -22 78.98 -22 97 C-28.93 97 -35.86 97 -43 97 C-43 79.51 -43 62.02 -43 44 C-48.28 44 -53.56 44 -59 44 C-59.33 40.37 -59.66 36.74 -60 33 C-59.01 32.505 -59.01 32.505 -58 32 C-58 35.63 -58 39.26 -58 43 C-52.39 43 -46.78 43 -41 43 C-41 60.16 -41 77.32 -41 95 C-35.39 95 -29.78 95 -24 95 C-24 77.84 -24 60.68 -24 43 C-18.39 43 -12.78 43 -7 43 C-7 38.05 -7 33.1 -7 28 C-1 30 -1 30 5 33 C5 23.1 5 13.2 5 3 C3.68 3 2.36 3 1 3 C0.505 1.515 0.505 1.515 0 0 Z " fill="#D6EEEF" transform="translate(279,72)"/>
<path d="M0 0 C0.66 0.33 1.32 0.66 2 1 C1.51497009 1.3952739 1.02994019 1.79054779 0.5302124 2.19779968 C-1.44242819 4.52106768 -1.41170136 5.81287699 -1.48339844 8.83520508 C-1.52663239 10.30737236 -1.52663239 10.30737236 -1.57073975 11.8092804 C-1.58348938 12.86866318 -1.59623901 13.92804596 -1.609375 15.01953125 C-1.62647522 16.11085861 -1.64357544 17.20218597 -1.66119385 18.32658386 C-1.68954494 20.63731153 -1.70914635 22.94816052 -1.72070312 25.2590332 C-1.74981519 28.79008356 -1.84283904 32.31588452 -1.9375 35.84570312 C-1.9570923 38.09111472 -1.97284288 40.33656379 -1.984375 42.58203125 C-2.02141541 43.63534134 -2.05845581 44.68865143 -2.09661865 45.77388 C-2.08525523 51.4313322 -2.08525523 51.4313322 0.92297363 55.99203491 C10.86921837 62.83668695 22.49116748 63.2036885 34.203125 61.546875 C36.03894955 61.20327147 37.87078942 60.83678773 39.6953125 60.4375 C42 60 42 60 46 60 C46 48.12 46 36.24 46 24 C37.42 24 28.84 24 20 24 C20 28.29 20 32.58 20 37 C23.96 37 27.92 37 32 37 C32.09765625 44.71484375 32.09765625 44.71484375 32 47 C31 48 31 48 27.9375 48.0625 C26.968125 48.041875 25.99875 48.02125 25 48 C25 47.67 25 47.34 25 47 C26.65 47 28.3 47 30 47 C30 44.03 30 41.06 30 38 C26.04 38 22.08 38 18 38 C17.97314905 35.52076199 17.95323453 33.0418116 17.9375 30.5625 C17.92912109 29.85544922 17.92074219 29.14839844 17.91210938 28.41992188 C17.90346412 26.61306441 17.94779989 24.80612397 18 23 C19 22 19 22 21.77563477 21.88647461 C22.98533936 21.89171143 24.19504395 21.89694824 25.44140625 21.90234375 C26.61646729 21.90484131 27.79152832 21.90733887 29.00219727 21.90991211 C30.50709717 21.91901611 32.01199707 21.92812012 33.5625 21.9375 C38.326875 21.958125 43.09125 21.97875 48 22 C48 34.87 48 47.74 48 61 C39.32515373 63.16871157 32.55143711 64.49907472 23.875 64.4375 C22.86824219 64.45748047 21.86148438 64.47746094 20.82421875 64.49804688 C11.8329396 64.49223104 3.62609068 62.41234582 -3 56 C-4.21634003 53.56731993 -4.14629536 51.96575676 -4.17700195 49.24658203 C-4.18983719 48.25860626 -4.20267242 47.27063049 -4.21589661 46.25271606 C-4.22328354 45.18189789 -4.23067047 44.11107971 -4.23828125 43.0078125 C-4.246353 41.91032684 -4.25442474 40.81284119 -4.26274109 39.68209839 C-4.2765879 37.35692936 -4.28730737 35.03173995 -4.29516602 32.70654297 C-4.31239633 29.14641991 -4.35628028 25.58722106 -4.40039062 22.02734375 C-4.41051572 19.77084018 -4.41903239 17.5143287 -4.42578125 15.2578125 C-4.44328934 14.19104279 -4.46079742 13.12427307 -4.47883606 12.025177 C-4.45701673 4.60968598 -4.45701673 4.60968598 -1.97338867 1.29638672 C-1.32217041 0.8685791 -0.67095215 0.44077148 0 0 Z " fill="#C3E9EC" transform="translate(129,105)"/>
<path d="M0 0 C0.33 0 0.66 0 1 0 C1 17.49 1 34.98 1 53 C-3.62 53 -8.24 53 -13 53 C-13.495 40.625 -13.495 40.625 -14 28 C-16.31 36.25 -18.62 44.5 -21 53 C-26.28 53 -31.56 53 -37 53 C-40.465 41.615 -40.465 41.615 -44 30 C-44.33 37.59 -44.66 45.18 -45 53 C-49.62 53 -54.24 53 -59 53 C-59 52.67 -59 52.34 -59 52 C-55.04 52 -51.08 52 -47 52 C-47 39.79 -47 27.58 -47 15 C-46.34 15 -45.68 15 -45 15 C-41.7 26.88 -38.4 38.76 -35 51 C-31.04 51.33 -27.08 51.66 -23 52 C-22.7421875 50.61941406 -22.484375 49.23882812 -22.21875 47.81640625 C-20.94139821 41.43976719 -19.24725319 35.19909983 -17.5 28.9375 C-17.19191406 27.79861328 -16.88382813 26.65972656 -16.56640625 25.48632812 C-16.26605469 24.40673828 -15.96570313 23.32714844 -15.65625 22.21484375 C-15.38619141 21.23636475 -15.11613281 20.25788574 -14.83789062 19.24975586 C-14 17 -14 17 -12 16 C-12 27.88 -12 39.76 -12 52 C-8.04 52 -4.08 52 0 52 C0 34.84 0 17.68 0 0 Z " fill="#D6B7C6" transform="translate(166,177)"/>
<path d="M0 0 C4.38239258 1.3340957 5.99673928 2.85743447 8.25 6.8125 C8.75015625 7.66457031 9.2503125 8.51664063 9.765625 9.39453125 C12.05819876 14.23360309 12.13643875 18.69242075 12.125 24 C12.12886719 25.794375 12.12886719 25.794375 12.1328125 27.625 C12.01757938 30.55327693 11.67823563 33.15786976 11 36 C11.66 36.391875 12.32 36.78375 13 37.1875 C15 39 15 39 15.625 41.375 C14.70321558 45.24649458 12.22418296 46.96720105 9 49 C0.27005761 53.06043832 -10.40283861 52.09175674 -19.8125 51.9375 C-23.02286011 51.84230396 -23.02286011 51.84230396 -26 53 C-31.78486795 53.5729774 -35.93572769 53.11647527 -41 50 C-41 49.34 -41 48.68 -41 48 C-40.319375 48.309375 -39.63875 48.61875 -38.9375 48.9375 C-34.92669202 50.38821778 -30.99446344 51.408588 -26.75 50.5390625 C-22.08907629 49.62541552 -17.33283511 49.71165222 -12.59375 49.57421875 C-8.52104898 48.92347196 -6.95315647 47.79607368 -4 45 C-3.0925 44.319375 -2.185 43.63875 -1.25 42.9375 C1.24288636 41.12556871 1.24288636 41.12556871 2 38 C4 37.33333333 6 36.66666667 8 36 C10.62306727 28.13079818 10.11047015 16.43445248 6.99609375 8.73046875 C5.42928352 6.00851999 3.35371929 4.04401939 1 2 C0.505 1.01 0.505 1.01 0 0 Z " fill="#EEE1E4" transform="translate(251,179)"/>
<path d="M0 0 C1.12980195 3.38940586 0.94577538 3.74750397 -0.40063477 6.85058594 C-5.84258633 20.21018483 -7.02429275 31.9208742 -6.9375 46.25 C-6.95065419 48.27866848 -6.96691629 50.30731925 -6.98632812 52.3359375 C-7.0265249 57.22449801 -7.02533474 62.1113582 -7 67 C-5.02 67 -3.04 67 -1 67 C-0.814375 65.14375 -0.814375 65.14375 -0.625 63.25 C-0.2793272 59.79327201 0.34445298 58.31109404 2 55 C9.59 55 17.18 55 25 55 C25.99 58.96 26.98 62.92 28 67 C33.94 66.67 39.88 66.34 46 66 C43.81490098 59.41974574 41.62772259 52.84018743 39.4387207 46.26123047 C38.69630454 44.02899283 37.95442983 41.79657503 37.21313477 39.56396484 C36.13965331 36.3312149 35.0642216 33.0991198 33.98828125 29.8671875 C33.64185577 28.82342957 33.2954303 27.77967163 32.93850708 26.70428467 C31.45895725 22.26762327 29.96588505 17.84351174 28.32958984 13.46191406 C28.0872612 12.8111087 27.84493256 12.16030334 27.59526062 11.48977661 C26.97579697 9.8485266 26.34062241 8.21322858 25.70385742 6.57861328 C24.94730007 3.80693142 25.20693451 2.68077536 26 0 C29.08400747 7.4410827 31.77042482 14.97694516 34.328125 22.61328125 C34.91892853 24.37214912 34.91892853 24.37214912 35.52166748 26.16654968 C36.34679147 28.62749991 37.17027423 31.08900098 37.9921875 33.55102539 C39.25287579 37.32110002 40.52472517 41.08729547 41.796875 44.85351562 C42.59964611 47.25237411 43.40175292 49.65145503 44.203125 52.05078125 C44.58430481 53.17478836 44.96548462 54.29879547 45.35821533 55.4568634 C45.7056781 56.50532944 46.05314087 57.55379547 46.41113281 58.6340332 C46.71883606 59.5520723 47.02653931 60.47011139 47.34356689 61.41596985 C48 64 48 64 48 69 C41.07 69 34.14 69 27 69 C24 61 24 61 23 57 C16.4 56.67 9.8 56.34 3 56 C2.690625 57.588125 2.38125 59.17625 2.0625 60.8125 C1.51076205 63.64475482 0.91407022 66.25778934 0 69 C-2.64 69 -5.28 69 -8 69 C-8.17603071 62.69113662 -8.30144127 56.38377118 -8.38452148 50.07299805 C-8.41923371 47.93667642 -8.46662019 45.80051452 -8.52807617 43.66479492 C-8.95668979 28.36076755 -7.40031079 15.07515646 -1 1 C-0.67 0.67 -0.34 0.34 0 0 Z " fill="#BFDFE2" transform="translate(187,99)"/>
<path d="M0 0 C7.46779583 1.50827403 13.12241319 3.05748382 19 8 C18.21824485 12.84688192 16.60155722 17.3766367 15 22 C10.47110729 21.72552165 7.82648208 19.75932899 4.58203125 16.8046875 C0.27380411 11.89011728 -0.39436328 6.30981251 0 0 Z " fill="#396E9D" transform="translate(217,204)"/>
<path d="M0 0 C0.33 0 0.66 0 1 0 C1 17.16 1 34.32 1 52 C10.9 52 20.8 52 31 52 C31 48.37 31 44.74 31 41 C25.39 41 19.78 41 14 41 C14 37.7 14 34.4 14 31 C19.28 31 24.56 31 30 31 C30 27.37 30 23.74 30 20 C24.72 20 19.44 20 14 20 C14 17.03 14 14.06 14 11 C19.61 11 25.22 11 31 11 C31 7.37 31 3.74 31 0 C31.66 0 32.32 0 33 0 C33.02696365 1.79158489 33.04637917 3.58328473 33.0625 5.375 C33.07410156 6.37273437 33.08570313 7.37046875 33.09765625 8.3984375 C33 11 33 11 32 13 C26.72 13 21.44 13 16 13 C16 14.98 16 16.96 16 19 C20.95 19 25.9 19 31 19 C31 23.29 31 27.58 31 32 C26.05 32 21.1 32 16 32 C16 34.64 16 37.28 16 40 C17.14339844 39.98839844 18.28679687 39.97679687 19.46484375 39.96484375 C20.95572754 39.95546712 22.44661309 39.94636679 23.9375 39.9375 C24.69224609 39.92912109 25.44699219 39.92074219 26.22460938 39.91210938 C28.14994313 39.90347559 30.07535581 39.94775667 32 40 C35.07318149 43.07318149 33 48.65386506 33 53 C22.11 53 11.22 53 0 53 C0 35.51 0 18.02 0 0 Z " fill="#E2CFD8" transform="translate(73,177)"/>
<path d="M0 0 C8.58 0 17.16 0 26 0 C27.16917969 2.289375 28.33835937 4.57875 29.54296875 6.9375 C30.69063325 9.17866193 31.83952133 11.41919257 32.98852539 13.65966797 C33.78016874 15.20491195 34.57055891 16.75079866 35.35961914 18.29736328 C36.50069394 20.53332137 37.64640892 22.76685054 38.79296875 25 C39.13901657 25.68054443 39.48506439 26.36108887 39.84159851 27.06225586 C42.30473112 31.84456442 44.88007338 36.60864409 48 41 C48.33 41 48.66 41 49 41 C49 42.98 49 44.96 49 47 C46.64202985 44.83779226 45.18664787 42.76936305 43.73168945 39.92749023 C43.31148026 39.11332138 42.89127106 38.29915253 42.45832825 37.46031189 C42.01446274 36.5852449 41.57059723 35.71017792 41.11328125 34.80859375 C40.65140915 33.9075441 40.18953705 33.00649445 39.71366882 32.07814026 C38.74016008 30.17567047 37.76950794 28.2717366 36.80151367 26.36645508 C35.31458463 23.44160056 33.8171879 20.52228696 32.31835938 17.60351562 C31.37437342 15.75552827 30.43099307 13.90723141 29.48828125 12.05859375 C29.03834305 11.18150253 28.58840485 10.30441132 28.12483215 9.40074158 C27.71407944 8.58972488 27.30332672 7.77870819 26.88012695 6.94311523 C26.51611282 6.22824448 26.15209869 5.51337372 25.77705383 4.77684021 C25 3 25 3 25 1 C17.08 1 9.16 1 1 1 C1.26550942 9.54530535 1.26550942 9.54530535 4.94140625 15.4765625 C5.81635742 16.51103516 5.81635742 16.51103516 6.70898438 17.56640625 C7.32064453 18.24574219 7.93230469 18.92507812 8.5625 19.625 C9.17802734 20.34300781 9.79355469 21.06101562 10.42773438 21.80078125 C11.93338245 23.55153482 13.4564638 25.28268396 15 27 C15.33 25.35 15.66 23.7 16 22 C16.66 22 17.32 22 18 22 C18.84098656 26.01804691 19.05404945 29.01803543 18 33 C13.76550575 31.46462911 11.63561223 28.31269663 9.0625 24.8125 C8.62373535 24.22315674 8.1849707 23.63381348 7.73291016 23.02661133 C6.87044881 21.86646791 6.01065099 20.70433862 5.15380859 19.54003906 C4.21657045 18.2890661 3.23374727 17.07234148 2.23828125 15.8671875 C-1.37809927 11.41147511 -1.5512875 8.51287501 -1 3 C-0.67 2.01 -0.34 1.02 0 0 Z " fill="#C8E5E7" transform="translate(57,98)"/>
<path d="M0 0 C0.66 0.33 1.32 0.66 2 1 C1.16855469 1.8353125 1.16855469 1.8353125 0.3203125 2.6875 C-4.19455369 7.44337328 -7.5040058 11.27769562 -8 18 C-8.09152344 19.22332031 -8.18304687 20.44664062 -8.27734375 21.70703125 C-8.68704776 30.05090647 -8.14197576 37.06889842 -3 44 C0.99790761 47.99790761 4.87134807 49.86076445 10.5234375 50.23046875 C12.42996094 50.20919922 12.42996094 50.20919922 14.375 50.1875 C15.64085938 50.18105469 16.90671875 50.17460937 18.2109375 50.16796875 C21.89623047 50.00460009 25.36437083 49.58714941 29 49 C29 45.37 29 41.74 29 38 C25.535 38.495 25.535 38.495 22 39 C25 37 25 37 31 36 C31 40.62 31 45.24 31 50 C22.33903988 53.58384557 12.57497625 54.86071659 3.5 51.8125 C-3.39604256 48.2413351 -7.33228522 44.2233508 -10 37 C-12.49672366 27.046395 -12.06177568 16.04409487 -7 7 C-4.86859322 4.38936899 -2.60020942 2.14006 0 0 Z " fill="#F1D2E1" transform="translate(38,179)"/>
<path d="M0 0 C5.875 1.875 5.875 1.875 7 3 C7.08843793 5.44830426 7.11528752 7.86820599 7.09765625 10.31640625 C7.0962413 11.04746078 7.09482635 11.77851532 7.09336853 12.53172302 C7.08775408 14.87535632 7.07519922 17.21889539 7.0625 19.5625 C7.05748686 21.14778508 7.05292363 22.73307166 7.04882812 24.31835938 C7.03777997 28.2122761 7.02050572 32.10612205 7 36 C2.58551676 34.96106026 -0.96992418 33.08220584 -5 31 C-5.33 35.29 -5.66 39.58 -6 44 C-11.61 44 -17.22 44 -23 44 C-23 60.83 -23 77.66 -23 95 C-23.33 95 -23.66 95 -24 95 C-24 77.84 -24 60.68 -24 43 C-18.39 43 -12.78 43 -7 43 C-7 38.05 -7 33.1 -7 28 C-1 30 -1 30 5 33 C5 23.1 5 13.2 5 3 C3.68 3 2.36 3 1 3 C0.67 2.01 0.34 1.02 0 0 Z " fill="#B4E5E9" transform="translate(279,72)"/>
<path d="M0 0 C2.475 0.495 2.475 0.495 5 1 C6.55120494 4.93035363 5.38586125 7.39943669 3.8125 11.1875 C3.17248047 12.78658203 3.17248047 12.78658203 2.51953125 14.41796875 C1 17 1 17 -0.86328125 17.98828125 C-3.62226244 18.00341277 -5.47454981 17.08724064 -8 16 C-14.75628993 14.67465109 -20.04243318 14.35251011 -26 18 C-30.4519494 21.73001166 -31.05270336 26.41047168 -31.8125 31.92578125 C-32.16084163 37.63713263 -31.15246551 41.99385634 -28.3125 46.9375 C-25.39772935 49.53716031 -22.78225786 50.19990699 -19 51 C-19 51.33 -19 51.66 -19 52 C-23.05202513 52.48238394 -24.70783598 52.18904731 -28.1875 49.9375 C-33.45472404 44.93294592 -34.2041421 40.10840295 -34.4375 33.0625 C-34.30047443 27.20154258 -33.663689 22.67679914 -30 18 C-24.2669983 12.67649842 -20.22536896 12.73415486 -12.578125 12.765625 C-8.11358149 13.05806235 -5.00683323 14.07672005 -1 16 C-0.70996094 15.11248047 -0.70996094 15.11248047 -0.4140625 14.20703125 C0.94414719 10.0853355 2.32050585 6.0049476 4 2 C2.68 2 1.36 2 0 2 C0 1.34 0 0.68 0 0 Z " fill="#D4EBED" transform="translate(171,101)"/>
<path d="M0 0 C3.67268615 0.54410165 6.74104373 2.29645468 10 4 C9.79024479 7.67071613 9.04536326 8.9512345 6.5 11.6875 C2.75046553 14.59567551 -1.39015985 15.31364602 -6 16 C-6.77843805 9.9281832 -4.17016902 5.93714848 -1 1 C-0.67 0.67 -0.34 0.34 0 0 Z " fill="#DB171E" transform="translate(241,211)"/>
<path d="M0 0 C1.16692383 -0.0309375 1.16692383 -0.0309375 2.35742188 -0.0625 C8.00448931 -0.10017851 12.13162154 1.0000185 17.3125 3.25 C16.72145235 8.09659077 15.33305843 11.85748167 13.3125 16.25 C12.3225 16.105625 11.3325 15.96125 10.3125 15.8125 C9.67570312 15.72613281 9.03890625 15.63976562 8.3828125 15.55078125 C6.99781975 15.34956532 5.61698008 15.11745753 4.2421875 14.85546875 C0.86762414 14.27165646 -1.34710593 14.11680232 -4.5625 15.375 C-7.74969522 18.18723107 -8.55956457 21.00055271 -8.98828125 25.1875 C-8.99214844 26.198125 -8.99601562 27.20875 -9 28.25 C-9.01675781 29.260625 -9.03351562 30.27125 -9.05078125 31.3125 C-8.47025726 36.00662945 -6.13704122 39.12898651 -2.6875 42.25 C-5.77664085 41.91902062 -6.6901931 41.24715301 -8.875 38.9375 C-12.29935778 33.86000399 -12.34945019 28.22544229 -11.6875 22.25 C-10.17806874 17.73665108 -8.68028705 14.91185803 -4.6875 12.25 C1.21439682 11.6199702 6.81555396 11.87294225 12.3125 14.25 C13.3025 10.95 14.2925 7.65 15.3125 4.25 C5.74223777 1.60992766 -3.92674076 1.39856615 -13.6875 3.25 C-9.82604421 -0.61145579 -5.13102171 0.03318365 0 0 Z " fill="#EEC8DA" transform="translate(53.6875,175.75)"/>
<path d="M0 0 C0.99 0.66 1.98 1.32 3 2 C1.73090537 5.91304179 0.53743024 7.85610288 -3 10 C-6.56045177 11.18681726 -9.43808337 11.09689832 -13.1875 11.0625 C-14.45980469 11.05347656 -15.73210937 11.04445312 -17.04296875 11.03515625 C-18.50669922 11.01775391 -18.50669922 11.01775391 -20 11 C-17.44032797 8.94281393 -14.87735227 6.9080142 -12.25 4.9375 C-9.75711364 3.12556871 -9.75711364 3.12556871 -9 0 C-5.88109857 -1.55945072 -3.34501482 -0.64552918 0 0 Z " fill="#EDE650" transform="translate(262,217)"/>
<path d="M0 0 C9.57 0 19.14 0 29 0 C29 0.33 29 0.66 29 1 C19.76 1 10.52 1 1 1 C1 17.83 1 34.66 1 52 C22.7817423 52.20018493 22.7817423 52.20018493 34 48 C36.41144481 45.46900795 36.41144481 45.46900795 38 43 C38.66 43 39.32 43 40 43 C40 44.32 40 45.64 40 47 C38.35546875 48.44921875 38.35546875 48.44921875 36.1875 49.6875 C35.47980469 50.10386719 34.77210938 50.52023438 34.04296875 50.94921875 C30.02022287 53.01827925 26.83016013 53.11716227 22.36328125 53.09765625 C20.60818237 53.09390991 20.60818237 53.09390991 18.81762695 53.09008789 C16.58758911 53.07643188 16.58758911 53.07643188 14.3125 53.0625 C9.589375 53.041875 4.86625 53.02125 0 53 C0 35.51 0 18.02 0 0 Z " fill="#C782A3" transform="translate(169,177)"/>
<path d="M0 0 C0.66 0 1.32 0 2 0 C3.16681635 4.09088167 4.32422226 8.18427181 5.47290039 12.28027344 C5.86516503 13.67390929 6.26001256 15.06682078 6.6574707 16.45898438 C7.2276443 18.45779519 7.78854146 20.45900927 8.34765625 22.4609375 C8.68804932 23.66540527 9.02844238 24.86987305 9.37915039 26.11083984 C10 29 10 29 9 31 C6.33932669 28.33932669 5.81904593 25.40459859 4.875 21.875 C4.25625 19.60625 3.6375 17.3375 3 15 C2.67 22.59 2.34 30.18 2 38 C-2.62 38 -7.24 38 -12 38 C-12 37.67 -12 37.34 -12 37 C-8.04 37 -4.08 37 0 37 C0 24.79 0 12.58 0 0 Z " fill="#EEC3D7" transform="translate(119,192)"/>
<path d="M0 0 C0 4.95 0 9.9 0 15 C-0.33 15 -0.66 15 -1 15 C-1 10.71 -1 6.42 -1 2 C-17.17 2 -33.34 2 -50 2 C-50 6.29 -50 10.58 -50 15 C-50.33 15 -50.66 15 -51 15 C-51.33 10.05 -51.66 5.1 -52 0 C-45.71965268 -0.16821337 -39.43917219 -0.3287077 -33.15844727 -0.48217773 C-31.0236282 -0.53541471 -28.88885984 -0.5907286 -26.75415039 -0.64819336 C-23.67865937 -0.73061738 -20.60306097 -0.80547167 -17.52734375 -0.87890625 C-16.10505714 -0.91945885 -16.10505714 -0.91945885 -14.65403748 -0.96083069 C-13.75363235 -0.98092697 -12.85322723 -1.00102325 -11.92553711 -1.02172852 C-11.14166122 -1.04171402 -10.35778534 -1.06169952 -9.55015564 -1.08229065 C-6.34806022 -0.97896264 -3.17156269 -0.45308038 0 0 Z " fill="#4DCAD3" transform="translate(272,100)"/>
<path d="M0 0 C2 1 2 1 2.96142578 3.52856445 C3.2861084 4.629021 3.61079102 5.72947754 3.9453125 6.86328125 C4.47705078 8.65862305 4.47705078 8.65862305 5.01953125 10.49023438 C5.38433594 11.75158203 5.74914062 13.01292969 6.125 14.3125 C6.68380859 16.18711914 6.68380859 16.18711914 7.25390625 18.09960938 C10 27.46952266 10 27.46952266 10 32 C10.66 32 11.32 32 12 32 C12.10957031 31.40646729 12.21914062 30.81293457 12.33203125 30.20141602 C13.58008151 23.68149492 15.1803743 17.31970203 17 10.9375 C17.26039063 9.98939453 17.52078125 9.04128906 17.7890625 8.06445312 C18.17191406 6.71577148 18.17191406 6.71577148 18.5625 5.33984375 C18.79066406 4.52894287 19.01882812 3.71804199 19.25390625 2.88256836 C20 1 20 1 22 0 C20.70788935 7.04200305 19.00826299 13.88014987 17 20.75 C16.73960937 21.65621094 16.47921875 22.56242187 16.2109375 23.49609375 C14.89992784 28.03165746 13.53767595 32.53482561 12 37 C11.34 37 10.68 37 10 37 C8.56870655 32.37570405 7.1447611 27.74923336 5.72753906 23.12060547 C5.24452129 21.54674554 4.75951121 19.9734956 4.27246094 18.40087891 C3.57220548 16.13862505 2.87917484 13.87426491 2.1875 11.609375 C1.96876221 10.90818542 1.75002441 10.20699585 1.5246582 9.48455811 C0.50659644 6.12649059 0 3.54981676 0 0 Z " fill="#ECC6D9" transform="translate(126,177)"/>
<path d="M0 0 C3.625 0.25 3.625 0.25 5.625 1.4375 C6.625 3.25 6.625 3.25 6.6875 5.625 C5.16303646 9.39132169 2.86535034 10.83697315 -0.375 13.25 C-3.345 10.94 -6.315 8.63 -9.375 6.25 C-3.375 0.25 -3.375 0.25 0 0 Z " fill="#F9BC20" transform="translate(237.375,198.75)"/>
<path d="M0 0 C0.66 0.33 1.32 0.66 2 1 C1.38125 1.0825 0.7625 1.165 0.125 1.25 C-2.1346633 1.77905978 -2.1346633 1.77905978 -2.9375 3.75 C-3.4634375 4.86375 -3.4634375 4.86375 -4 6 C-5.66666667 7.66666667 -7.33333333 9.33333333 -9 11 C-10.79837276 13.94768561 -11.24858436 16.12124667 -11.23046875 19.5546875 C-11.22853516 20.41707031 -11.22660156 21.27945313 -11.22460938 22.16796875 C-11.21236328 23.06128906 -11.20011719 23.95460937 -11.1875 24.875 C-11.1865332 26.20337891 -11.1865332 26.20337891 -11.18554688 27.55859375 C-11.1547844 32.1456202 -10.9306137 36.48838479 -10 41 C-11.98 41 -13.96 41 -16 41 C-16.10957031 40.33613281 -16.21914062 39.67226562 -16.33203125 38.98828125 C-17.21136023 34.09120522 -17.99451714 30.09838572 -21 26 C-17.83884224 27.36983503 -17.0072908 27.9890638 -15 31 C-14.8046875 33.26171875 -14.8046875 33.26171875 -14.875 35.6875 C-14.89304688 36.49574219 -14.91109375 37.30398437 -14.9296875 38.13671875 C-14.96449219 39.05904297 -14.96449219 39.05904297 -15 40 C-14.01 39.505 -14.01 39.505 -13 39 C-13.16008545 38.4220166 -13.3201709 37.8440332 -13.48510742 37.24853516 C-15.47154555 28.57376266 -15.24020005 17.04558331 -11.34375 8.98828125 C-8.42239099 4.66568899 -4.94902874 1.64967625 0 0 Z " fill="#EBB7D0" transform="translate(225,177)"/>
<path d="M0 0 C2.2109885 0.42793326 3.98119242 0.99059621 6 2 C6.33 1.34 6.66 0.68 7 0 C8.32 0 9.64 0 11 0 C11 3.63 11 7.26 11 11 C10.01 11 9.02 11 8 11 C8 10.34 8 9.68 8 9 C6.35 9 4.7 9 3 9 C3 9.66 3 10.32 3 11 C1.68 10.67 0.36 10.34 -1 10 C-1.02689216 8.52093108 -1.04634621 7.04172517 -1.0625 5.5625 C-1.07410156 4.73878906 -1.08570313 3.91507813 -1.09765625 3.06640625 C-1 1 -1 1 0 0 Z " fill="#CFCFCF" transform="translate(60,239)"/>
<path d="M0 0 C1.32 0 2.64 0 4 0 C4.66 0.66 5.32 1.32 6 2 C6.66 1.34 7.32 0.68 8 0 C10.125 0.375 10.125 0.375 12 1 C12.125 8.75 12.125 8.75 11 11 C10.01 11 9.02 11 8 11 C8 10.34 8 9.68 8 9 C6.68 9 5.36 9 4 9 C3.67 9.66 3.34 10.32 3 11 C2.01 11 1.02 11 0 11 C0 7.37 0 3.74 0 0 Z " fill="#B8B8B8" transform="translate(82,239)"/>
<path d="M0 0 C5 1 5 1 6 2 C6.33 1.34 6.66 0.68 7 0 C8.32 0 9.64 0 11 0 C11 3.63 11 7.26 11 11 C6 10 6 10 5 9 C4.67 9.66 4.34 10.32 4 11 C2.68 11 1.36 11 0 11 C0 7.37 0 3.74 0 0 Z " fill="#9F9F9F" transform="translate(236,239)"/>
<path d="M0 0 C5 1 5 1 6 2 C6.33 1.34 6.66 0.68 7 0 C8.32 0 9.64 0 11 0 C11 3.63 11 7.26 11 11 C6 10 6 10 5 9 C4.67 9.66 4.34 10.32 4 11 C2.68 11 1.36 11 0 11 C0 7.37 0 3.74 0 0 Z " fill="#9F9F9F" transform="translate(125,239)"/>
<path d="M0 0 C-0.4452885 5.27315333 -1.08373163 10.01770224 -3 15 C-3.33 14.34 -3.66 13.68 -4 13 C-4.928125 12.690625 -5.85625 12.38125 -6.8125 12.0625 C-9.8423133 11.05256223 -11.54257077 9.95634821 -14 8 C-12.75312408 7.03760548 -11.50235031 6.08025991 -10.25 5.125 C-9.55390625 4.59132812 -8.8578125 4.05765625 -8.140625 3.5078125 C-3.16062176 0 -3.16062176 0 0 0 Z " fill="#FB6A6F" transform="translate(255,202)"/>
<path d="M0 0 C3.41053712 1.13684571 3.97851486 1.93801507 6.06640625 4.74609375 C6.63423828 5.50083984 7.20207031 6.25558594 7.78710938 7.03320312 C8.37298828 7.82662109 8.95886719 8.62003906 9.5625 9.4375 C10.72928193 10.9995851 11.89720023 12.56082223 13.06640625 14.12109375 C13.58146729 14.8164624 14.09652832 15.51183105 14.62719727 16.22827148 C16.02458679 18.10848988 16.02458679 18.10848988 18 20 C18.24291992 22.13208008 18.24291992 22.13208008 18.23046875 24.76953125 C18.22917969 25.73560303 18.22789063 26.7016748 18.2265625 27.69702148 C18.20722656 29.23918335 18.20722656 29.23918335 18.1875 30.8125 C18.18105469 31.85027588 18.17460938 32.88805176 18.16796875 33.95727539 C18.09421629 41.34116376 17.78953913 48.65446627 17 56 C15.515 55.505 15.515 55.505 14 55 C14 54.34 14 53.68 14 53 C14.66 53 15.32 53 16 53 C17.74574832 31.48571978 17.74574832 31.48571978 10.37768555 12.15234375 C8.16568893 9.7579727 5.91106394 7.48557956 3.40454102 5.39916992 C1.76056824 3.76148385 0.93643745 2.1090249 0 0 Z " fill="#D0EDEF" transform="translate(57,114)"/>
<path d="M0 0 C0.66 0 1.32 0 2 0 C3.17072186 4.29057109 4.33589137 8.58263033 5.5 12.875 C5.83386719 14.09832031 6.16773438 15.32164063 6.51171875 16.58203125 C6.82753906 17.74863281 7.14335937 18.91523438 7.46875 20.1171875 C7.76201172 21.19597168 8.05527344 22.27475586 8.35742188 23.38623047 C9 26 9 26 9 28 C8.34 28 7.68 28 7 28 C5.02 21.4 3.04 14.8 1 8 C-0.65 14.6 -2.3 21.2 -4 28 C-4.66 28 -5.32 28 -6 28 C-5.35521919 21.65594974 -4.03753669 15.6670882 -2.4375 9.5 C-2.20353516 8.5821875 -1.96957031 7.664375 -1.72851562 6.71875 C-1.15666285 4.47802077 -0.58041707 2.23852312 0 0 Z " fill="#BAE2E5" transform="translate(199,111)"/>
<path d="M0 0 C2.01822917 0.06510417 4.03645833 0.13020833 6.0546875 0.1953125 C7.81016484 2.8801602 8.06096027 4.11533465 7.8046875 7.3828125 C7.5571875 8.3109375 7.3096875 9.2390625 7.0546875 10.1953125 C4.04144555 11.70193347 1.37182373 11.37301623 -1.9453125 11.1953125 C-3.9453125 9.1953125 -3.9453125 9.1953125 -4.1953125 5.6953125 C-3.81587014 0.38311949 -3.81587014 0.38311949 0 0 Z M1.0546875 3.1953125 C0.7246875 4.5153125 0.3946875 5.8353125 0.0546875 7.1953125 C1.0446875 7.5253125 2.0346875 7.8553125 3.0546875 8.1953125 C3.3846875 6.8753125 3.7146875 5.5553125 4.0546875 4.1953125 C3.0646875 3.8653125 2.0746875 3.5353125 1.0546875 3.1953125 Z " fill="#B3B3B3" transform="translate(41.9453125,238.8046875)"/>
<path d="M0 0 C3.63 0.33 7.26 0.66 11 1 C11 1.99 11 2.98 11 4 C13.31 4.66 15.62 5.32 18 6 C17.67 6.66 17.34 7.32 17 8 C12.09572829 9.52386561 8.01574281 9.37614771 3.4375 7.0625 C2.27911234 6.39637065 1.12810973 5.71621136 0 5 C0 3.35 0 1.7 0 0 Z " fill="#ED2E8B" transform="translate(210,222)"/>
<path d="M0 0 C0.33 0 0.66 0 1 0 C1.02964844 1.30839844 1.05929688 2.61679688 1.08984375 3.96484375 C1.74674651 9.87696858 4.70983789 13.23079244 8.5625 17.5625 C9.17802734 18.28501953 9.79355469 19.00753906 10.42773438 19.75195312 C11.93539696 21.51673647 13.45880633 23.26451943 15 25 C15.33 23.35 15.66 21.7 16 20 C16.66 20 17.32 20 18 20 C18.84098656 24.01804691 19.05404945 27.01803543 18 31 C13.76550575 29.46462911 11.63561223 26.31269663 9.0625 22.8125 C8.62373535 22.22315674 8.1849707 21.63381348 7.73291016 21.02661133 C6.87044881 19.86646791 6.01065099 18.70433862 5.15380859 17.54003906 C4.21657045 16.2890661 3.23374727 15.07234148 2.23828125 13.8671875 C-1.35681641 9.43769754 -1.56701819 6.48117585 -1 1 C-0.67 0.67 -0.34 0.34 0 0 Z " fill="#D6EFF1" transform="translate(57,100)"/>
<path d="M0 0 C1.32 0 2.64 0 4 0 C4.33 2.31 4.66 4.62 5 7 C5.33 7 5.66 7 6 7 C6.33 4.69 6.66 2.38 7 0 C8.32 0 9.64 0 11 0 C11.05399736 1.45792884 11.09279177 2.91642712 11.125 4.375 C11.14820312 5.18710938 11.17140625 5.99921875 11.1953125 6.8359375 C11 9 11 9 9 11 C5.5 11.25 5.5 11.25 2 11 C0 9 0 9 -0.1953125 6.8359375 C-0.17210938 6.02382812 -0.14890625 5.21171875 -0.125 4.375 C-0.10695313 3.55773437 -0.08890625 2.74046875 -0.0703125 1.8984375 C-0.04710938 1.27195313 -0.02390625 0.64546875 0 0 Z " fill="#B8B8B8" transform="translate(104,239)"/>
<path d="M0 0 C2.97 0.495 2.97 0.495 6 1 C6.69809445 3.26805795 7.38371017 5.53866607 8.0625 7.8125 C8.26166016 8.45509766 8.46082031 9.09769531 8.66601562 9.75976562 C10.11328125 14.66015625 10.11328125 14.66015625 9 18 C3.84773457 14.3361668 1.4609435 11.19340152 0 5 C-0.1875 2 -0.1875 2 0 0 Z " fill="#385F95" transform="translate(217,206)"/>
<path d="M0 0 C0.66 0 1.32 0 2 0 C2.02696365 1.79158489 2.04637917 3.58328473 2.0625 5.375 C2.07410156 6.37273437 2.08570312 7.37046875 2.09765625 8.3984375 C2 11 2 11 1 13 C-4.28 13 -9.56 13 -15 13 C-15 14.98 -15 16.96 -15 19 C-10.05 19 -5.1 19 0 19 C0 19.33 0 19.66 0 20 C-5.61 20 -11.22 20 -17 20 C-17 17.03 -17 14.06 -17 11 C-11.39 11 -5.78 11 0 11 C0 7.37 0 3.74 0 0 Z " fill="#F8E6EF" transform="translate(104,177)"/>
<path d="M0 0 C1.670625 0.061875 1.670625 0.061875 3.375 0.125 C3.705 1.445 4.035 2.765 4.375 4.125 C2.395 4.125 0.415 4.125 -1.625 4.125 C-1.295 5.115 -0.965 6.105 -0.625 7.125 C1.025 6.795 2.675 6.465 4.375 6.125 C4.375 7.445 4.375 8.765 4.375 10.125 C3.375 11.125 3.375 11.125 0 11.4375 C-3.625 11.125 -3.625 11.125 -5.625 9.4375 C-6.88826211 6.51620636 -6.64516252 5.10701353 -5.625 2.125 C-3.625 0.125 -3.625 0.125 0 0 Z " fill="#AAAAAA" transform="translate(262.625,238.875)"/>
<path d="M0 0 C1.670625 0.061875 1.670625 0.061875 3.375 0.125 C3.705 1.445 4.035 2.765 4.375 4.125 C2.395 4.125 0.415 4.125 -1.625 4.125 C-1.295 5.115 -0.965 6.105 -0.625 7.125 C1.025 6.795 2.675 6.465 4.375 6.125 C4.375 7.445 4.375 8.765 4.375 10.125 C3.375 11.125 3.375 11.125 0 11.4375 C-3.625 11.125 -3.625 11.125 -5.625 9.4375 C-6.88826211 6.51620636 -6.64516252 5.10701353 -5.625 2.125 C-3.625 0.125 -3.625 0.125 0 0 Z " fill="#ACACAC" transform="translate(23.625,238.875)"/>
<path d="M0 0 C1.65 0 3.3 0 5 0 C4.67 0.99 4.34 1.98 4 3 C3.34 3 2.68 3 2 3 C2 4.32 2 5.64 2 7 C2.99 7 3.98 7 5 7 C4.52445506 11.27990445 2.01316405 13.12698311 -1 16 C-3.79785176 19.19754487 -5.61977975 21.9743576 -7 26 C-7.99 26 -8.98 26 -10 26 C-9.91144303 23.07762002 -9.40634568 21.41112622 -7.33984375 19.3203125 C-6.69144531 18.74023438 -6.04304687 18.16015625 -5.375 17.5625 C-3.45220641 15.85792126 -3.45220641 15.85792126 -2 14 C-1.87389103 10.64593488 -1.87389103 10.64593488 -3 8 C-2.01 7.67 -1.02 7.34 0 7 C0 4.69 0 2.38 0 0 Z " fill="#EAD1CA" transform="translate(245,192)"/>
<path d="M0 0 C0.99 0.495 0.99 0.495 2 1 C1.67 10.9 1.34 20.8 1 31 C7.12383108 27.67496738 7.12383108 27.67496738 13.2355957 24.32788086 C13.99960693 23.91932861 14.76361816 23.51077637 15.55078125 23.08984375 C16.72120972 22.45357056 16.72120972 22.45357056 17.9152832 21.80444336 C20 21 20 21 23 22 C20.41732587 23.45951119 17.83389259 24.91764881 15.25 26.375 C14.52039062 26.7875 13.79078125 27.2 13.0390625 27.625 C12.33007812 28.02460937 11.62109375 28.42421875 10.890625 28.8359375 C9.91657715 29.38580322 9.91657715 29.38580322 8.92285156 29.94677734 C8.28831055 30.29434082 7.65376953 30.6419043 7 31 C6.32163086 31.37463379 5.64326172 31.74926758 4.94433594 32.13525391 C3 33 3 33 0 33 C0 22.11 0 11.22 0 0 Z " fill="#CFE2E4" transform="translate(5,79)"/>
<path d="M0 0 C0.99 0.66 1.98 1.32 3 2 C2.67 2.66 2.34 3.32 2 4 C1.34 4 0.68 4 0 4 C0 5.98 0 7.96 0 10 C-0.99 10 -1.98 10 -3 10 C-3 10.66 -3 11.32 -3 12 C-6.55780196 11.39009109 -9.6828589 10.4216319 -13 9 C-13 8.01 -13 7.02 -13 6 C-14.65 6 -16.3 6 -18 6 C-17.360625 5.71125 -16.72125 5.4225 -16.0625 5.125 C-13.84793921 4.17176549 -13.84793921 4.17176549 -13 2 C-12.01 2.66 -11.02 3.32 -10 4 C-10 4.66 -10 5.32 -10 6 C-7.34771188 7.07525194 -4.71631546 8.09456151 -2 9 C-1.34 6.03 -0.68 3.06 0 0 Z " fill="#D04196" transform="translate(234,217)"/>
<path d="M0 0 C0.886875 0.185625 1.77375 0.37125 2.6875 0.5625 C5.85178811 0.98042484 7.94839642 0.80777742 11 0 C10.21681311 3.91593446 8.60820142 7.36406635 7 11 C6.01 11 5.02 11 4 11 C0.71428571 3.57142857 0.71428571 3.57142857 0 0 Z " fill="#C8C8C8" transform="translate(177,239)"/>
<path d="M0 0 C0.66 0 1.32 0 2 0 C1.62930292 2.71844523 1.24260221 3.78560735 -0.84765625 5.6328125 C-1.57855469 6.12523437 -2.30945313 6.61765625 -3.0625 7.125 C-5.23763185 8.55896197 -5.23763185 8.55896197 -7 10 C-7 10.66 -7 11.32 -7 12 C-11.29 12 -15.58 12 -20 12 C-20 11.34 -20 10.68 -20 10 C-19.01 10 -18.02 10 -17 10 C-17 8.02 -17 6.04 -17 4 C-16.67 4 -16.34 4 -16 4 C-16 5.98 -16 7.96 -16 10 C-8.81832759 7.86184885 -4.35422862 6.18019546 0 0 Z " fill="#E73683" transform="translate(251,217)"/>
<path d="M0 0 C0.66 0 1.32 0 2 0 C2 1.32 2 2.64 2 4 C0.35546875 5.44921875 0.35546875 5.44921875 -1.8125 6.6875 C-2.52019531 7.10386719 -3.22789062 7.52023438 -3.95703125 7.94921875 C-7.97977713 10.01827925 -11.16983987 10.11716227 -15.63671875 10.09765625 C-16.93544922 10.09443359 -18.23417969 10.09121094 -19.57226562 10.08789062 C-20.94401108 10.07953531 -22.31575587 10.07107037 -23.6875 10.0625 C-25.07096195 10.05748335 -26.45442563 10.05292073 -27.83789062 10.04882812 C-31.22530395 10.03702529 -34.61263033 10.02056019 -38 10 C-38 9.67 -38 9.34 -38 9 C-37.28980713 8.98541748 -36.57961426 8.97083496 -35.84790039 8.95581055 C-32.58559222 8.88068375 -29.32423602 8.78423867 -26.0625 8.6875 C-24.94552734 8.66494141 -23.82855469 8.64238281 -22.67773438 8.61914062 C-16.1507002 8.40859114 -9.90927882 8.02481107 -4 5 C-1.58855519 2.46900795 -1.58855519 2.46900795 0 0 Z " fill="#ECDBE3" transform="translate(207,220)"/>
<path d="M0 0 C0.33 0 0.66 0 1 0 C1 2.64 1 5.28 1 8 C2.98567708 7.96744792 4.97135417 7.93489583 6.95703125 7.90234375 C9 8 9 8 12 9 C12.33 9.99 12.66 10.98 13 12 C8.98195309 12.84098656 5.98196457 13.05404945 2 12 C2 13.65 2 15.3 2 17 C1.67 17 1.34 17 1 17 C1 14.69 1 12.38 1 10 C0.34 9.67 -0.32 9.34 -1 9 C-0.67 6.03 -0.34 3.06 0 0 Z " fill="#EB58AA" transform="translate(208,210)"/>
<path d="M0 0 C3.63 0 7.26 0 11 0 C11 0.99 11 1.98 11 3 C9.68 3 8.36 3 7 3 C7 5.64 7 8.28 7 11 C6.01 11 5.02 11 4 11 C4 8.36 4 5.72 4 3 C2.68 3 1.36 3 0 3 C0 2.01 0 1.02 0 0 Z " fill="#7C7C7C" transform="translate(158,239)"/>
<path d="M0 0 C9.37226277 -0.31240876 9.37226277 -0.31240876 12 2 C12.9375 4.9375 12.9375 4.9375 13 8 C11.5625 9.875 11.5625 9.875 10 11 C9.01 10.67 8.02 10.34 7 10 C7.99 9.34 8.98 8.68 10 8 C10 6.68 10 5.36 10 4 C7.36 3.34 4.72 2.68 2 2 C2 4.97 2 7.94 2 11 C1.34 11 0.68 11 0 11 C0 7.37 0 3.74 0 0 Z " fill="#F5D8E6" transform="translate(183,207)"/>
<path d="M0 0 C4.12751449 0.60698743 7.3321148 2.03810791 11 4 C10.67 4.66 10.34 5.32 10 6 C9.175 5.62875 8.35 5.2575 7.5 4.875 C3.20578129 3.80144532 -0.01095689 4.01462763 -4 6 C-5.59688639 8.48313064 -5.59688639 8.48313064 -6 11 C-7.65 11 -9.3 11 -11 11 C-10.67 10.01 -10.34 9.02 -10 8 C-9.01 7.67 -8.02 7.34 -7 7 C-6.154375 6.154375 -5.30875 5.30875 -4.4375 4.4375 C-3.633125 3.633125 -2.82875 2.82875 -2 2 C-1.34 2 -0.68 2 0 2 C0 1.34 0 0.68 0 0 Z " fill="#F7DDDC" transform="translate(234,186)"/>
<path d="M0 0 C0.5775 0.309375 1.155 0.61875 1.75 0.9375 C3.84294184 1.92583364 5.74535275 2.5168613 8 3 C8 3.66 8 4.32 8 5 C4.99686252 6.50156874 2.20932478 6.09281204 -1.125 6.0625 C-2.40632812 6.05347656 -3.68765625 6.04445312 -5.0078125 6.03515625 C-6.48894531 6.01775391 -6.48894531 6.01775391 -8 6 C-5.38485683 3.87961365 -2.80362384 1.86908256 0 0 Z " fill="#55D550" transform="translate(250,222)"/>
<path d="M0 0 C0.33 1.65 0.66 3.3 1 5 C0.01 5.495 0.01 5.495 -1 6 C-0.34 6.33 0.32 6.66 1 7 C1 7.66 1 8.32 1 9 C-1.375 8.75 -1.375 8.75 -4 8 C-5.3125 5.9375 -5.3125 5.9375 -6 4 C-6 4.66 -6 5.32 -6 6 C-6.66 6 -7.32 6 -8 6 C-7.67 4.02 -7.34 2.04 -7 0 C-3.86650268 -1.04449911 -3.01031744 -0.93423645 0 0 Z " fill="#FCF9EC" transform="translate(245,192)"/>
<path d="M0 0 C7.42857143 -0.28571429 7.42857143 -0.28571429 11 2 C11 4.64 11 7.28 11 10 C8.69 10 6.38 10 4 10 C4.639375 9.7525 5.27875 9.505 5.9375 9.25 C8.18741541 8.18437567 8.18741541 8.18437567 8.75 5.875 C8.8325 5.25625 8.915 4.6375 9 4 C6.69 3.34 4.38 2.68 2 2 C2 4.64 2 7.28 2 10 C1.34 10 0.68 10 0 10 C0 6.7 0 3.4 0 0 Z " fill="#F5D6E6" transform="translate(183,187)"/>
<path d="M0 0 C0 4.62 0 9.24 0 14 C-4.2099725 15.683989 -5.78952566 16.24059853 -10 16 C-9.67 15.34 -9.34 14.68 -9 14 C-6.67843403 13.59270772 -4.3431213 13.25561323 -2 13 C-2 9.37 -2 5.74 -2 2 C-4.31 2.33 -6.62 2.66 -9 3 C-5.73209435 0.82139623 -3.91954654 0 0 0 Z " fill="#F0CFDF" transform="translate(69,215)"/>
<path d="M0 0 C3.66881155 0.70554068 6.70450534 2.27735506 10 4 C9.625 6.4375 9.625 6.4375 9 9 C8.01 9.495 8.01 9.495 7 10 C7 9.01 7 8.02 7 7 C6.34 7 5.68 7 5 7 C5 6.34 5 5.68 5 5 C2.69 4.67 0.38 4.34 -2 4 C-1.34 2.68 -0.68 1.36 0 0 Z " fill="#E43539" transform="translate(241,211)"/>
<path d="M0 0 C0.66 0.66 1.32 1.32 2 2 C1.625 5.125 1.625 5.125 1 8 C0.67 7.34 0.34 6.68 0 6 C-1.3921875 5.5359375 -1.3921875 5.5359375 -2.8125 5.0625 C-5.80735213 4.06421596 -7.61830597 3.01527957 -10 1 C-6.42894485 -1.33492068 -4.06144397 -1.05950712 0 0 Z " fill="#F05053" transform="translate(251,209)"/>
<path d="M0 0 C0.66 0 1.32 0 2 0 C2 0.99 2 1.98 2 3 C2.66 2.67 3.32 2.34 4 2 C4.99 2 5.98 2 7 2 C6.67 2.598125 6.34 3.19625 6 3.8125 C4.79212012 6.05386471 4.79212012 6.05386471 5 9 C6.30456502 10.45034604 6.30456502 10.45034604 8 11.6875 C9.485 12.8321875 9.485 12.8321875 11 14 C10.67 14.66 10.34 15.32 10 16 C6.35007204 13.97298644 3.00787356 11.91288808 0 9 C-0.85196137 5.83270832 -0.65172156 3.19343565 0 0 Z " fill="#F6EAD7" transform="translate(226,197)"/>
<path d="M0 0 C3.60555003 0.20603143 5.01433211 1.01210267 7.8125 3.375 C10.68622306 7.11899881 10.5791493 10.85380631 10.3671875 15.4296875 C9.91963993 18.56252051 9.12220537 20.63292478 7 23 C6.34 23 5.68 23 5 23 C5 23.66 5 24.32 5 25 C3.68 24.67 2.36 24.34 1 24 C1.78375 23.236875 2.5675 22.47375 3.375 21.6875 C6.42453606 18.56535594 7.90585535 17.01676225 8.3125 12.625 C7.85967108 7.3721845 6.2674729 5.09061621 2.3125 1.6875 C1.549375 1.130625 0.78625 0.57375 0 0 Z " fill="#EBD4DF" transform="translate(199,178)"/>
<path d="M0 0 C0.33 0 0.66 0 1 0 C1.20638953 24.77626887 1.20638953 24.77626887 0 36 C-0.99 35.67 -1.98 35.34 -3 35 C-3 34.34 -3 33.68 -3 33 C-2.34 33 -1.68 33 -1 33 C-1.01160156 32.04222656 -1.02320312 31.08445313 -1.03515625 30.09765625 C-1.11687332 20.02602697 -0.69627964 10.04632047 0 0 Z " fill="#F4E6EE" transform="translate(74,134)"/>
<path d="M0 0 C1.32 0 2.64 0 4 0 C4 3.63 4 7.26 4 11 C2.68 11 1.36 11 0 11 C0 7.37 0 3.74 0 0 Z " fill="#C1C1C1" transform="translate(223,239)"/>
<path d="M0 0 C1.65 0.33 3.3 0.66 5 1 C6.11346788 3.80033839 6.03510273 4.90143703 5.00390625 7.796875 C4.52824219 8.77140625 4.05257812 9.7459375 3.5625 10.75 C3.08941406 11.73484375 2.61632812 12.7196875 2.12890625 13.734375 C1.75636719 14.48203125 1.38382813 15.2296875 1 16 C0.34 16 -0.32 16 -1 16 C0.54269924 11.27934033 2.07794619 6.58335908 4 2 C2.68 2 1.36 2 0 2 C0 1.34 0 0.68 0 0 Z " fill="#C9E8EB" transform="translate(171,101)"/>
<path d="M0 0 C5 2 5 2 7.1875 3 C11.35704095 4.48250345 15.65391117 5.2067333 20 6 C20 6.33 20 6.66 20 7 C12.98979521 7.45227128 7.14563238 6.6459208 1 3 C0.67 2.01 0.34 1.02 0 0 Z " fill="#D9ECED" transform="translate(130,162)"/>
<path d="M0 0 C0.99 0 1.98 0 3 0 C3.19491452 1.45736087 3.38069358 2.91594593 3.5625 4.375 C3.66691406 5.18710938 3.77132812 5.99921875 3.87890625 6.8359375 C4 9 4 9 3 11 C2.01 11 1.02 11 0 11 C0 7.37 0 3.74 0 0 Z " fill="#979797" transform="translate(146,239)"/>
<path d="M0 0 C0.99 0.99 1.98 1.98 3 3 C3.99 2.67 4.98 2.34 6 2 C6.33 1.34 6.66 0.68 7 0 C7.66 0 8.32 0 9 0 C9 2.64 9 5.28 9 8 C8.67 6.68 8.34 5.36 8 4 C6.68 4.99 5.36 5.98 4 7 C3.34 6.34 2.68 5.68 2 5 C1.34 5.99 0.68 6.98 0 8 C0 5.36 0 2.72 0 0 Z " fill="#4C4C4C" transform="translate(61,240)"/>
<path d="M0 0 C2.97 0.99 5.94 1.98 9 3 C9 3.99 9 4.98 9 6 C8.01 6.33 7.02 6.66 6 7 C6 6.34 6 5.68 6 5 C5.21625 4.896875 4.4325 4.79375 3.625 4.6875 C1 4 1 4 -1 1 C-0.67 0.67 -0.34 0.34 0 0 Z " fill="#ABE74E" transform="translate(252,220)"/>
<path d="M0 0 C1.65 0 3.3 0 5 0 C4.67 0.99 4.34 1.98 4 3 C3.34 3 2.68 3 2 3 C2 4.32 2 5.64 2 7 C2.99 7 3.98 7 5 7 C4.67 8.32 4.34 9.64 4 11 C2.68 10.67 1.36 10.34 0 10 C0 6.7 0 3.4 0 0 Z " fill="#F5C19F" transform="translate(245,192)"/>
<path d="M0 0 C3.63 0.33 7.26 0.66 11 1 C11 1.66 11 2.32 11 3 C7.7 3 4.4 3 1 3 C0.67 3.66 0.34 4.32 0 5 C0 3.35 0 1.7 0 0 Z " fill="#EB328E" transform="translate(210,222)"/>
<path d="M0 0 C0.33 0 0.66 0 1 0 C1 3.3 1 6.6 1 10 C1.66 10 2.32 10 3 10 C3 8.02 3 6.04 3 4 C4.32 5.32 5.64 6.64 7 8 C6.67 8.66 6.34 9.32 6 10 C5.67 9.67 5.34 9.34 5 9 C4.67 9.66 4.34 10.32 4 11 C2.68 11 1.36 11 0 11 C0 7.37 0 3.74 0 0 Z " fill="#E5E5E5" transform="translate(236,239)"/>
<path d="M0 0 C0.33 0 0.66 0 1 0 C1 3.3 1 6.6 1 10 C1.66 10 2.32 10 3 10 C3 8.02 3 6.04 3 4 C4.32 5.32 5.64 6.64 7 8 C6.67 8.66 6.34 9.32 6 10 C5.67 9.67 5.34 9.34 5 9 C4.67 9.66 4.34 10.32 4 11 C2.68 11 1.36 11 0 11 C0 7.37 0 3.74 0 0 Z " fill="#E5E5E5" transform="translate(125,239)"/>
<path d="M0 0 C4.7517398 0.43197635 6.92000054 1.32769295 10 5 C6.63295715 5.2295711 4.58629732 5.33943529 1.625 3.625 C1.08875 3.08875 0.5525 2.5525 0 2 C0 1.34 0 0.68 0 0 Z " fill="#ED1676" transform="translate(211,225)"/>
<path d="M0 0 C1.98 0.99 3.96 1.98 6 3 C5.67 4.32 5.34 5.64 5 7 C4.67 6.01 4.34 5.02 4 4 C0.9254644 4.7763932 0.9254644 4.7763932 -1 7 C-1.625 5.1875 -1.625 5.1875 -2 3 C-1.34 2.01 -0.68 1.02 0 0 Z " fill="#FBF9EF" transform="translate(230,191)"/>
<path d="M0 0 C0.680625 0.309375 1.36125 0.61875 2.0625 0.9375 C5.37789384 2.136685 8.5089308 2.5556821 12 3 C13.33917261 3.30903983 14.67653254 3.62942911 16 4 C14.44909185 5.55090815 12.96303767 5.20677311 10.8125 5.25 C6.5362574 5.22267577 3.68568558 4.2681142 0 2 C0 1.34 0 0.68 0 0 Z " fill="#F0DBE4" transform="translate(210,227)"/>
<path d="M0 0 C0 3 0 3 -1.4375 4.5 C-1.953125 4.995 -2.46875 5.49 -3 6 C-3.33 6.99 -3.66 7.98 -4 9 C-5.65 9 -7.3 9 -9 9 C-8.67 8.01 -8.34 7.02 -8 6 C-7.01 5.67 -6.02 5.34 -5 5 C-3.29413425 3.37347684 -1.6222454 1.70993434 0 0 Z " fill="#F2BFA9" transform="translate(232,188)"/>
<path d="M0 0 C1 1 2 2 3 3 C3.556875 3.433125 4.11375 3.86625 4.6875 4.3125 C6.62635078 6.80530815 6.20379762 8.94303577 6 12 C3.02404533 9.44918171 1.55997434 6.56565563 0 3 C0 2.01 0 1.02 0 0 Z " fill="#D7EEF0" transform="translate(100,133)"/>
<path d="M0 0 C0 0.99 0 1.98 0 3 C-1.32 3 -2.64 3 -4 3 C-4 5.64 -4 8.28 -4 11 C-4.99 11 -5.98 11 -7 11 C-7 10.34 -7 9.68 -7 9 C-6.34 9 -5.68 9 -5 9 C-5 6.36 -5 3.72 -5 1 C-2 0 -2 0 0 0 Z " fill="#C3C3C3" transform="translate(169,239)"/>
<path d="M0 0 C2 1 4 2 6 3 C4.9024777 5.99324263 4.32317108 6.84610901 1.375 8.25 C0.59125 8.4975 -0.1925 8.745 -1 9 C-0.34 8.01 0.32 7.02 1 6 C0.68493373 2.85778033 0.68493373 2.85778033 0 0 Z " fill="#FBE5D0" transform="translate(242,200)"/>
<path d="M0 0 C0.99 0.33 1.98 0.66 3 1 C2.34 2.32 1.68 3.64 1 5 C-1.31 5 -3.62 5 -6 5 C-6.33 4.34 -6.66 3.68 -7 3 C-5.02 3 -3.04 3 -1 3 C-1.33 2.34 -1.66 1.68 -2 1 C-1.34 0.67 -0.68 0.34 0 0 Z " fill="#DCDCDC" transform="translate(265,245)"/>
<path d="M0 0 C0.99 0.33 1.98 0.66 3 1 C2.34 2.32 1.68 3.64 1 5 C-1.31 5 -3.62 5 -6 5 C-6.33 4.34 -6.66 3.68 -7 3 C-5.02 3 -3.04 3 -1 3 C-1.33 2.34 -1.66 1.68 -2 1 C-1.34 0.67 -0.68 0.34 0 0 Z " fill="#DBDBDB" transform="translate(26,245)"/>
<path d="M0 0 C0.99 0 1.98 0 3 0 C3.33 2.64 3.66 5.28 4 8 C2.68 7.67 1.36 7.34 0 7 C0 4.69 0 2.38 0 0 Z " fill="#B7B7B7" transform="translate(105,239)"/>
<path d="M0 0 C2.97 1.98 2.97 1.98 6 4 C5.67 4.99 5.34 5.98 5 7 C4.34 6.67 3.68 6.34 3 6 C3 5.34 3 4.68 3 4 C2.34 4 1.68 4 1 4 C0.67 5.32 0.34 6.64 0 8 C0 5.36 0 2.72 0 0 Z " fill="#4F4F4F" transform="translate(83,240)"/>
<path d="M0 0 C0.33 0 0.66 0 1 0 C1.25 3.3125 1.25 3.3125 1 7 C-1 8.9375 -1 8.9375 -3 10 C-2.69201674 8.51988629 -2.378482 7.04092675 -2.0625 5.5625 C-1.88847656 4.73878906 -1.71445313 3.91507813 -1.53515625 3.06640625 C-1 1 -1 1 0 0 Z " fill="#ECBFD5" transform="translate(153,193)"/>
<path d="M0 0 C0.99 0.33 1.98 0.66 3 1 C3.33 3.64 3.66 6.28 4 9 C1.47740939 7.02579865 1.0070192 6.03254358 0.3125 2.8125 C0.209375 1.884375 0.10625 0.95625 0 0 Z " fill="#58508F" transform="translate(218,211)"/>
<path d="M0 0 C0.66 0 1.32 0 2 0 C1.60196439 2.88575819 1.20990931 3.82189513 -1.0625 5.75 C-1.701875 6.1625 -2.34125 6.575 -3 7 C-3 3.47967572 -2.29648649 2.5614657 0 0 Z " fill="#E24D75" transform="translate(251,217)"/>
<path d="M0 0 C4.875 4.625 4.875 4.625 6 8 C2.83884224 6.63016497 2.0072908 6.0109362 0 3 C0 2.01 0 1.02 0 0 Z " fill="#ECC1D6" transform="translate(66,159)"/>
<path d="M0 0 C3.16115776 1.36983503 3.9927092 1.9890638 6 5 C5.67 5.99 5.34 6.98 5 8 C0 2.25 0 2.25 0 0 Z " fill="#F2D7E4" transform="translate(60,153)"/>
<path d="M0 0 C4.875 4.625 4.875 4.625 6 8 C2.83884224 6.63016497 2.0072908 6.0109362 0 3 C0 2.01 0 1.02 0 0 Z " fill="#ECC0D4" transform="translate(55,145)"/>
<path d="M0 0 C0.66 0.33 1.32 0.66 2 1 C0.66666667 3.66666667 -0.66666667 6.33333333 -2 9 C-2.6875 6.75 -2.6875 6.75 -3 4 C-1.5625 1.6875 -1.5625 1.6875 0 0 Z " fill="#7F7F7F" transform="translate(184,239)"/>
<path d="M0 0 C3.99996286 1.33332095 4.83782337 3.4957827 7 7 C4.20171644 6.61402985 3.1794116 6.19863427 1.25 4.0625 C0 2 0 2 0 0 Z " fill="#F4DCE8" transform="translate(30,219)"/>
<path d="M0 0 C0.33 0 0.66 0 1 0 C1 2.64 1 5.28 1 8 C-1.31 8 -3.62 8 -6 8 C-5.38125 7.79375 -4.7625 7.5875 -4.125 7.375 C-1.15346355 5.45224112 -0.86975341 3.33405473 0 0 Z " fill="#EEBFD5" transform="translate(193,189)"/>
<path d="M0 0 C0.99 0 1.98 0 3 0 C3 1.32 3 2.64 3 4 C1.68 4 0.36 4 -1 4 C-0.67 2.68 -0.34 1.36 0 0 Z " fill="#D0D0D0" transform="translate(197,247)"/>
<path d="M0 0 C1.32 0 2.64 0 4 0 C4 0.99 4 1.98 4 3 C2.68 3 1.36 3 0 3 C0 2.01 0 1.02 0 0 Z " fill="#DDDDDD" transform="translate(276,247)"/>
</svg>
